<?xml version="1.0" standalone="no"?>
<!DOCTYPE svg PUBLIC "-//W3C//DTD SVG 20010904//EN"
 "http://www.w3.org/TR/2001/REC-SVG-20010904/DTD/svg10.dtd">
<svg version="1.0" xmlns="http://www.w3.org/2000/svg"
 width="800.000000pt" height="608.000000pt" viewBox="0 0 800.000000 608.000000"
 preserveAspectRatio="xMidYMid meet">

<g transform="translate(0.000000,608.000000) scale(0.100000,-0.100000)"
fill="#000000" stroke="none">
<path d="M5346 5955 c-7 -19 15 -45 38 -45 6 0 4 -4 -3 -9 -12 -8 -10 -12 12
-22 41 -18 35 -47 -10 -55 -62 -11 -73 -21 -38 -35 26 -11 27 -13 10 -17 -11
-2 -23 -9 -27 -16 -8 -11 -12 -12 -85 -15 -30 -1 -43 -5 -43 -15 0 -24 -22
-30 -36 -11 -12 16 -18 17 -52 7 -22 -7 -58 -12 -80 -12 -22 0 -44 -4 -47 -10
-4 -6 8 -10 29 -10 19 0 38 -5 41 -11 5 -7 13 -5 25 6 11 10 25 15 32 12 9 -4
8 -6 -3 -6 -16 -1 -34 -29 -25 -38 8 -8 27 8 21 18 -4 5 -3 9 0 9 8 0 39 -30
34 -33 -2 -2 -17 -9 -34 -16 -26 -11 -28 -14 -12 -23 17 -9 17 -11 1 -36 -9
-15 -23 -31 -31 -35 -17 -11 -17 -27 2 -27 8 0 22 11 31 25 9 14 20 23 24 20
5 -3 11 -1 15 5 9 15 25 12 25 -4 0 -14 -26 -30 -45 -28 -5 1 -18 -12 -27 -28
-9 -17 -13 -30 -8 -30 18 0 10 -35 -11 -48 -11 -7 -18 -19 -15 -27 3 -8 1 -17
-4 -20 -6 -4 -10 -15 -10 -26 0 -11 -4 -18 -9 -15 -5 3 -11 -3 -14 -14 -6 -22
8 -28 16 -7 2 6 8 8 13 4 12 -12 -27 -39 -46 -32 -8 3 -5 -3 7 -14 12 -10 19
-21 16 -25 -4 -3 -1 -6 5 -6 6 0 14 9 17 20 3 11 12 20 20 20 8 0 15 12 17 28
4 25 5 25 13 7 12 -27 26 -36 50 -29 19 6 19 5 2 -12 -15 -17 -19 -17 -27 -4
-8 13 -10 12 -10 -3 0 -10 -7 -20 -16 -24 -12 -4 -13 -8 -3 -14 7 -4 23 -3 36
2 37 14 39 12 35 -26 -4 -35 -4 -36 24 -29 25 6 27 5 17 -8 -7 -8 -9 -18 -5
-23 4 -4 -3 -2 -15 4 -18 9 -22 9 -17 -3 3 -9 -4 -16 -22 -20 -30 -8 -46 0
-20 10 17 6 22 49 8 58 -5 3 -20 -5 -33 -17 -13 -12 -28 -22 -34 -22 -18 -1
-55 -39 -55 -58 0 -10 -5 -15 -10 -12 -7 4 -6 13 1 26 11 22 6 49 -11 49 -5 0
-10 -6 -10 -14 0 -8 -12 -17 -26 -20 -20 -5 -25 -12 -24 -34 4 -50 1 -55 -16
-38 -13 13 -14 22 -6 46 13 35 -4 53 -16 19 -6 -15 -11 -18 -16 -11 -13 21
-26 13 -26 -17 0 -17 -4 -33 -10 -36 -5 -3 -10 -1 -10 6 0 38 -51 -68 -67
-138 -6 -27 12 -31 26 -6 5 10 12 15 15 12 10 -10 -63 -80 -124 -119 -5 -3
-10 -14 -12 -25 -2 -15 2 -19 17 -17 11 2 23 9 26 14 4 6 8 5 11 -3 4 -11 12
-9 37 9 25 18 35 21 51 12 11 -6 26 -8 32 -4 8 5 9 2 5 -10 -4 -10 -7 -28 -7
-41 0 -18 -4 -22 -19 -18 -13 3 -27 -7 -47 -36 -20 -28 -39 -43 -61 -47 -22
-4 -35 -14 -43 -35 -7 -16 -16 -29 -21 -29 -5 0 -9 -5 -9 -11 0 -20 -71 -100
-82 -92 -7 4 -9 0 -5 -10 3 -9 2 -19 -3 -22 -14 -9 -12 21 4 60 13 29 13 33 0
28 -22 -8 -17 21 7 37 12 8 25 25 30 37 5 13 14 20 22 17 8 -3 20 2 27 11 12
15 10 15 -16 9 -16 -4 -30 -11 -32 -16 -2 -4 -17 -8 -32 -8 -30 0 -49 -15 -28
-22 8 -3 8 -12 -3 -36 -8 -19 -16 -27 -20 -20 -11 17 -37 -8 -42 -40 -2 -15
-5 1 -6 35 -1 53 2 64 19 73 11 6 20 17 20 25 0 8 8 20 18 27 9 7 25 26 35 41
10 15 33 35 51 44 23 10 37 26 43 47 5 19 20 36 38 45 40 19 64 50 65 82 0 15
7 46 15 69 8 23 12 47 9 52 -4 6 -1 14 6 18 9 6 9 13 -1 31 -7 13 -12 28 -11
32 1 5 -3 5 -9 1 -9 -5 -10 2 -6 27 6 34 6 34 -8 8 -8 -14 -13 -46 -11 -72 1
-28 -1 -44 -7 -40 -6 3 -7 1 -4 -5 4 -5 4 -18 0 -29 -6 -16 -8 -15 -14 7 -5
21 -7 17 -14 -23 -10 -66 -25 -69 -25 -6 0 48 -1 51 -14 34 -8 -11 -12 -25 -9
-31 2 -7 0 -15 -6 -19 -6 -3 -14 1 -17 10 -5 12 -10 13 -20 4 -7 -6 -18 -8
-23 -5 -14 9 -50 -15 -44 -30 7 -18 -18 -29 -28 -13 -8 14 -10 11 -13 -21 0
-9 -10 -14 -22 -13 -16 2 -24 -5 -28 -22 -4 -14 -11 -25 -17 -25 -8 0 -7 -5 1
-15 10 -12 9 -16 -5 -21 -10 -4 -26 -2 -36 4 -25 16 -24 17 -24 -25 0 -34 -3
-38 -32 -44 -40 -8 -63 -26 -63 -48 0 -10 -7 -26 -16 -37 -15 -18 -15 -18 -10
0 23 70 33 250 16 276 -7 11 -10 7 -10 -18 0 -19 -6 -35 -14 -38 -8 -3 -17
-17 -21 -32 -4 -15 -12 -33 -18 -40 -11 -14 -12 -17 -23 -67 -7 -33 -41 -75
-60 -75 -8 0 -2 21 17 58 33 64 36 92 24 251 -6 75 -11 98 -18 86 -6 -11 -7
-59 -3 -122 6 -84 5 -108 -7 -121 -18 -21 -39 -129 -31 -160 5 -16 3 -22 -7
-20 -14 3 -15 -5 -4 -34 6 -14 2 -15 -34 -6 -43 11 -53 31 -28 58 10 12 9 12
-4 2 -12 -9 -18 -9 -27 0 -18 18 -14 31 8 25 17 -4 19 -2 13 21 -8 35 23 60
43 34 20 -26 17 4 -3 35 -12 18 -13 24 -4 19 18 -11 31 10 31 50 0 20 -6 34
-16 38 -14 5 -16 1 -11 -34 6 -48 -10 -44 -19 5 -8 42 -19 44 -33 8 -9 -24
-10 -19 -6 30 3 31 2 57 -2 57 -13 -1 -53 -70 -53 -91 0 -10 -4 -19 -10 -19
-5 0 -10 -12 -10 -26 0 -14 -4 -23 -9 -20 -24 15 5 -38 36 -64 34 -30 36 -50
5 -50 -14 0 -14 -2 -3 -9 12 -7 12 -13 0 -40 -8 -17 -21 -31 -31 -31 -46 0
-25 -54 30 -78 28 -12 32 -17 19 -20 -10 -2 -36 8 -57 22 -38 25 -39 25 -45 6
-4 -11 -11 -20 -16 -20 -5 0 -12 0 -16 0 -24 -2 -58 -120 -34 -120 5 0 11 -9
14 -20 6 -25 -11 -26 -29 -2 -11 14 -12 12 -2 -15 7 -18 16 -33 20 -33 4 0 12
-9 18 -21 11 -20 11 -20 -13 -5 -13 9 -30 27 -37 41 -14 26 -36 33 -42 13 -2
-6 -10 -8 -16 -4 -7 4 -10 16 -7 27 4 11 2 19 -4 19 -6 0 -11 -15 -11 -34 0
-19 -4 -38 -10 -41 -6 -4 -10 7 -10 24 0 17 -4 31 -9 31 -5 0 -8 -15 -6 -32 3
-36 -20 -78 -41 -78 -8 0 -14 -9 -14 -20 0 -11 -6 -20 -13 -20 -9 0 -12 11 -9
35 2 19 1 42 -2 51 -6 15 -9 14 -25 -5 -11 -12 -22 -18 -25 -13 -3 5 -19 7
-36 4 -25 -4 -31 -8 -27 -23 7 -26 -10 -24 -18 1 -11 35 4 80 27 80 14 0 18
-5 15 -15 -4 -8 -2 -17 3 -20 6 -4 10 7 10 23 0 34 17 55 85 103 66 47 125 70
148 58 12 -7 18 -6 21 3 40 126 53 162 77 210 16 32 29 67 29 78 0 45 35 157
63 203 32 52 86 87 133 86 16 0 48 3 70 9 27 6 48 5 59 -1 14 -7 22 -3 39 17
15 19 34 29 64 33 23 3 45 10 48 14 3 5 15 9 27 9 12 0 35 7 51 15 15 8 36 15
45 15 15 0 84 20 139 41 12 5 22 15 22 23 0 7 9 16 20 19 11 3 20 10 20 16 0
15 -60 14 -61 -1 0 -7 -6 0 -13 16 -10 21 -15 25 -20 15 -5 -11 -7 -11 -12 -1
-5 10 -9 9 -20 -5 -12 -17 -13 -16 -15 12 -1 23 -3 25 -6 8 -7 -34 -28 -47
-47 -28 -14 15 -18 14 -43 -10 -24 -22 -82 -47 -91 -39 -2 1 1 12 8 23 15 30
-2 26 -38 -8 -16 -16 -32 -27 -35 -24 -3 2 -15 0 -26 -7 -27 -14 -28 3 -3 45
10 17 22 42 25 58 4 15 12 27 17 27 6 0 10 5 10 10 0 15 -30 12 -30 -2 -1 -7
-14 -29 -30 -48 -17 -19 -30 -42 -30 -51 0 -17 -30 -49 -47 -49 -6 0 -14 -7
-17 -16 -4 -9 -8 -15 -11 -13 -2 3 7 47 20 99 22 85 33 162 18 120 -3 -8 -11
-21 -17 -29 -9 -11 -12 -9 -17 15 l-7 29 -1 -30 c0 -17 -8 -41 -17 -54 -16
-22 -16 -23 5 -12 18 10 21 9 21 -9 0 -13 -4 -19 -11 -14 -12 7 -29 -13 -29
-35 0 -11 4 -9 15 5 8 11 14 14 15 6 0 -13 -89 -102 -102 -102 -8 0 4 36 23
72 6 12 12 65 13 119 1 98 -8 121 -20 51 -8 -46 -42 -131 -62 -154 -8 -10 -12
-24 -8 -33 3 -9 -1 -18 -9 -21 -8 -4 -15 -14 -15 -23 -1 -14 -1 -15 -10 0 -6
10 -5 30 1 53 6 20 9 51 7 69 -3 30 -4 29 -26 -27 -13 -32 -25 -86 -27 -119
-2 -37 -9 -66 -19 -75 -15 -15 -16 -15 -16 1 0 9 -4 17 -10 17 -5 0 -10 -7
-10 -15 0 -9 -19 -20 -47 -28 -28 -8 -48 -20 -48 -28 0 -8 -8 -20 -18 -27 -14
-11 -15 -17 -6 -34 9 -17 18 -20 55 -15 55 6 62 -1 23 -25 -21 -13 -43 -17
-68 -14 -41 4 -74 -8 -55 -21 6 -5 15 -19 19 -32 6 -18 4 -23 -6 -19 -11 4
-14 -4 -11 -36 2 -31 1 -37 -7 -26 -10 13 -11 13 -11 0 0 -13 -1 -13 -10 0 -9
13 -11 13 -20 0 -7 -11 -10 -6 -10 21 l0 37 -131 12 c-133 13 -258 7 -270 -12
-4 -7 -8 -5 -11 3 -4 12 -7 12 -21 0 -11 -8 -17 -9 -17 -2 0 7 -8 8 -26 1 -14
-6 -39 -10 -56 -10 -16 0 -55 -14 -85 -30 -42 -23 -63 -29 -85 -24 -23 5 -33
1 -45 -15 -13 -19 -21 -21 -64 -15 -37 5 -54 3 -67 -8 -9 -9 -41 -18 -71 -22
-29 -4 -65 -16 -80 -26 -23 -17 -78 -37 -191 -71 -19 -6 -57 -19 -85 -29 -232
-86 -255 -98 -255 -132 0 -10 -5 -18 -10 -18 -12 0 -180 -166 -180 -178 0 -4
-14 -16 -31 -26 -20 -12 -27 -21 -20 -25 7 -5 -2 -21 -26 -47 -58 -62 -118
-144 -148 -202 -27 -55 -27 -82 0 -46 13 17 14 17 15 2 0 -20 -47 -74 -57 -64
-4 3 -16 -13 -28 -36 -64 -125 -75 -149 -75 -160 0 -24 -64 -138 -77 -138 -7
0 -13 -9 -13 -19 0 -11 -9 -23 -20 -26 -11 -3 -20 -12 -20 -20 0 -7 -3 -15 -7
-17 -14 -6 -43 -65 -43 -87 0 -12 -6 -21 -15 -21 -10 0 -15 -9 -14 -27 2 -24
2 -25 6 -5 3 16 11 22 29 22 14 0 27 7 30 15 5 12 32 32 96 71 10 6 26 17 35
26 61 52 129 80 223 92 14 2 51 11 83 20 66 18 103 20 112 6 10 -17 -24 -69
-50 -76 -14 -3 -32 -18 -40 -33 -12 -23 -14 -24 -20 -8 -7 17 -8 17 -22 -3 -8
-11 -18 -18 -22 -15 -5 2 -19 -7 -31 -20 -13 -14 -29 -25 -36 -25 -11 0 -28
-34 -37 -75 -3 -14 -5 -12 -6 8 0 16 -5 26 -11 22 -5 -3 -10 3 -10 14 0 11 -5
23 -11 27 -7 4 -9 0 -5 -13 7 -22 -27 -69 -42 -59 -6 3 -12 -1 -16 -9 -6 -18
-53 -20 -58 -3 -5 13 -17 5 -58 -36 -11 -11 -23 -17 -26 -13 -8 7 -64 -20 -64
-31 0 -4 -15 -13 -33 -21 -77 -33 -119 -105 -119 -204 0 -37 -3 -55 -9 -46 -6
10 -12 4 -24 -23 -19 -46 -19 -70 -1 -45 19 25 47 12 41 -19 -3 -13 -8 -36
-11 -51 -10 -51 -65 -150 -90 -163 -13 -8 -24 -19 -24 -25 0 -7 -27 -36 -60
-67 l-59 -54 -69 7 c-37 4 -85 11 -107 15 -27 5 -36 4 -31 -5 4 -6 13 -11 19
-11 7 0 18 -9 25 -20 7 -11 18 -20 26 -20 7 0 26 -10 41 -22 19 -15 43 -22 73
-23 56 0 64 -18 18 -40 -40 -19 -85 -12 -66 10 8 9 8 15 1 20 -11 6 -61 -40
-61 -56 0 -4 -14 -10 -30 -14 -21 -5 -30 -13 -30 -26 0 -32 -39 -99 -65 -111
-13 -6 -21 -16 -19 -23 3 -7 -2 -15 -10 -18 -23 -9 -20 -30 4 -24 11 3 20 1
20 -4 0 -5 -4 -9 -9 -9 -15 0 -63 -54 -73 -81 -7 -21 -20 -30 -53 -38 -36 -9
-43 -15 -38 -29 5 -13 3 -15 -7 -5 -7 7 -19 8 -29 3 -9 -4 -28 -13 -44 -21
-15 -7 -27 -20 -27 -31 0 -31 -46 -94 -120 -164 -38 -37 -70 -75 -70 -85 0 -9
-7 -19 -15 -23 -8 -3 -15 -12 -15 -20 0 -9 -20 -22 -48 -32 -45 -16 -52 -23
-88 -92 -21 -41 -40 -89 -41 -106 -1 -17 0 -24 3 -16 20 56 47 100 63 100 16
0 17 -5 10 -42 -4 -24 -8 -48 -9 -55 0 -6 -9 -14 -19 -18 -11 -3 -22 -12 -25
-20 -3 -10 0 -12 11 -8 13 5 14 3 4 -15 -6 -12 -15 -21 -19 -21 -18 3 -22 -3
-12 -20 6 -12 6 -22 1 -26 -6 -3 -10 -252 -11 -640 l-1 -635 891 0 c489 1 890
3 890 6 0 3 -7 12 -15 20 -8 9 -15 23 -15 32 0 13 4 12 20 -6 11 -12 20 -28
20 -37 0 -12 17 -15 100 -15 77 0 100 3 100 13 0 8 9 22 20 32 20 18 29 72 10
60 -6 -3 -10 -2 -10 4 0 14 38 34 53 27 9 -3 9 -5 0 -5 -15 -1 -18 -51 -3 -51
6 0 13 7 16 15 8 20 24 19 24 -1 0 -9 6 -14 13 -11 19 7 41 -8 33 -22 -10 -16
-33 -14 -40 4 -8 22 -25 18 -19 -5 3 -11 9 -20 14 -20 5 0 9 -7 9 -15 0 -8 4
-15 9 -15 5 0 16 -3 24 -6 17 -6 40 48 27 62 -15 17 -22 91 -9 100 8 4 10 3 5
-4 -4 -7 -1 -12 9 -12 8 0 18 -7 21 -15 4 -8 10 -15 14 -15 15 0 16 34 3 90
-16 71 -16 85 2 104 8 8 15 24 15 35 0 12 6 21 15 21 18 0 20 42 4 106 -13 52
-3 71 44 80 25 4 27 2 27 -28 0 -30 -1 -31 -14 -12 -22 29 -33 7 -13 -27 9
-17 17 -42 17 -55 0 -13 3 -23 8 -23 35 6 42 -2 40 -45 -2 -31 -6 -42 -15 -39
-8 3 -13 -3 -13 -16 0 -15 5 -21 17 -19 13 2 19 -5 22 -22 1 -14 8 -28 13 -31
7 -4 6 -9 -1 -13 -7 -5 -14 4 -17 24 -5 21 -11 29 -20 26 -8 -3 -14 -1 -14 4
0 6 -7 10 -16 10 -12 0 -14 -7 -9 -33 8 -34 24 -61 33 -52 3 3 11 0 19 -6 7
-6 13 -8 13 -4 0 4 7 2 15 -5 8 -7 15 -9 15 -5 0 4 9 -4 20 -18 19 -23 27 -57
14 -57 -3 0 -14 4 -24 10 -17 9 -18 6 -16 -36 1 -24 -1 -47 -6 -50 -5 -3 -4
-12 3 -20 8 -10 34 -14 85 -14 l73 0 -11 33 c-6 17 -15 37 -19 43 -5 5 -6 21
-3 35 4 17 3 20 -4 10 -13 -18 -32 -6 -32 20 0 12 -5 17 -11 14 -5 -4 -3 10 5
30 12 28 13 35 3 26 -20 -16 -27 -3 -16 26 9 25 -3 63 -21 63 -6 0 -10 11 -10
24 0 14 -5 28 -11 32 -6 3 -9 22 -7 40 3 23 0 34 -9 34 -7 0 -13 -7 -13 -15 0
-8 -5 -15 -11 -15 -6 0 -8 8 -5 18 3 9 0 29 -8 43 -18 34 -8 49 22 33 17 -8
20 -13 10 -17 -9 -4 -7 -6 5 -6 9 -1 17 -5 17 -10 0 -5 8 -12 17 -15 20 -8 56
31 48 52 -3 7 -1 20 4 30 5 9 12 26 16 36 8 27 18 12 17 -27 -1 -22 7 -42 23
-61 31 -36 31 -42 3 -57 -21 -11 -21 -12 -3 -25 27 -20 37 -17 30 6 -4 11 -2
20 4 20 6 0 11 13 11 28 0 16 3 31 6 35 12 11 34 -5 35 -27 0 -20 1 -20 8 -1
6 14 3 24 -10 32 -14 11 -15 17 -6 38 24 50 38 29 54 -78 3 -25 1 -37 -7 -37
-7 0 -10 7 -6 15 3 8 1 15 -4 15 -6 0 -10 -4 -10 -10 0 -5 -9 -10 -20 -10 -36
0 -21 -29 27 -54 43 -21 50 -20 57 9 l6 25 23 -23 c12 -12 21 -28 19 -34 -2
-8 5 -12 20 -10 13 2 24 12 26 23 7 43 13 50 23 31 10 -17 12 -17 33 6 17 18
22 33 18 56 -6 43 14 39 25 -5 l8 -37 25 26 c19 20 31 24 53 20 25 -5 28 -3
25 13 -2 11 -11 18 -21 16 -20 -3 -22 9 -5 26 8 8 8 15 -2 27 -18 21 -5 31 15
11 22 -22 64 -31 78 -17 20 20 37 12 37 -19 0 -25 4 -30 23 -30 16 0 28 -11
42 -37 11 -20 20 -39 21 -42 2 -14 23 -55 23 -47 1 5 10 1 20 -8 12 -11 21
-14 26 -7 3 6 15 11 26 11 10 0 19 4 19 10 0 5 10 8 23 6 12 -3 30 -5 40 -5
12 -1 17 -9 17 -31 0 -24 4 -30 22 -30 20 0 20 1 5 18 -21 23 -21 32 -2 32 9
0 12 -6 9 -15 -4 -8 -1 -15 5 -15 6 0 11 11 11 25 0 33 33 34 64 1 16 -18 35
-26 67 -28 43 -3 44 -4 41 -35 -2 -32 11 -45 21 -20 4 9 8 9 15 -2 9 -12 13
-12 26 -2 19 16 21 4 6 -34 -8 -20 -7 -27 5 -31 18 -7 20 -31 3 -36 -7 -3 -9
-12 -5 -22 11 -28 39 -1 31 30 -3 13 -2 24 4 24 16 0 35 -29 29 -44 -3 -8 2
-16 14 -19 13 -4 17 -10 13 -22 -5 -13 -2 -15 20 -9 24 6 26 4 26 -25 0 -27
-4 -32 -30 -37 -16 -4 -30 -13 -30 -20 0 -16 9 -17 30 -4 9 6 17 5 22 -3 6 -9
10 -8 18 3 7 12 12 12 22 2 8 -8 45 -12 110 -12 97 0 98 0 98 24 0 35 10 56
26 56 8 0 14 -10 14 -25 0 -15 6 -25 14 -25 8 0 16 -5 18 -12 6 -16 78 -21 78
-5 0 8 3 8 12 -1 9 -9 443 -12 1890 -12 l1878 0 0 1855 c0 1691 -1 1858 -16
1880 -9 14 -21 25 -28 25 -12 0 -41 58 -33 66 5 6 30 -17 52 -48 8 -12 18 -19
21 -15 10 10 -16 84 -38 109 -10 12 -18 26 -18 31 0 6 -3 7 -7 4 -7 -8 -53 32
-53 46 0 5 8 7 18 5 17 -5 17 -3 3 28 -9 18 -21 33 -28 34 -6 0 -14 14 -18 30
-4 17 -10 28 -15 25 -4 -3 -10 2 -13 9 -3 8 -1 17 6 19 13 5 -28 40 -51 44
-23 3 -26 12 -11 29 11 13 11 18 2 21 -7 3 -13 9 -13 14 0 6 -11 22 -25 37
-14 15 -25 32 -25 39 0 7 -5 13 -10 13 -6 0 -22 7 -36 17 -17 11 -21 18 -13
23 8 6 5 14 -10 29 -12 12 -19 26 -16 31 4 6 0 10 -8 10 -8 0 -17 6 -20 14 -3
8 -19 17 -36 21 -52 11 -70 35 -62 81 6 34 5 40 -8 39 -9 0 -22 -4 -29 -9 -7
-4 -12 -2 -12 8 0 8 -4 16 -8 18 -4 2 -20 25 -35 52 -28 50 -35 86 -17 86 6 0
10 9 10 21 0 24 -18 16 -30 -15 -7 -16 -9 -9 -9 31 -1 47 -19 83 -29 55 -6
-18 -28 -14 -67 11 -20 12 -38 33 -41 47 -3 14 -10 32 -15 40 -5 8 -12 23 -15
32 -4 10 -14 20 -23 23 -9 2 -27 19 -41 37 -37 47 -163 168 -176 168 -6 0 -17
7 -25 16 -8 10 -21 13 -36 9 -15 -3 -23 -1 -23 7 0 21 -183 158 -211 158 -5 0
-17 8 -27 18 -10 10 -32 26 -49 37 -17 11 -59 44 -93 73 -33 28 -67 52 -75 52
-8 0 -29 9 -47 19 -18 11 -60 30 -93 42 -33 12 -65 26 -72 31 -23 19 -150 76
-184 83 -31 7 -87 32 -99 45 -3 3 -30 12 -60 19 -30 7 -65 19 -77 27 -12 8
-29 11 -37 8 -13 -5 -71 20 -86 37 -8 8 -99 49 -110 49 -6 0 -29 9 -51 19 -22
11 -53 23 -69 26 -17 4 -32 11 -35 16 -4 5 -11 9 -16 9 -6 0 -7 -4 -4 -10 3
-5 2 -10 -4 -10 -5 0 -11 5 -13 12 -3 7 -7 4 -12 -7z m67 -199 c6 -14 -1 -26
-14 -26 -4 0 -7 9 -6 20 1 23 12 26 20 6z m-48 -16 c3 -5 2 -10 -4 -10 -5 0
-13 5 -16 10 -3 6 -2 10 4 10 5 0 13 -4 16 -10z m420 -68 c-3 -3 -11 0 -18 7
-9 10 -8 11 6 5 10 -3 15 -9 12 -12z m-545 -162 c0 -5 -7 -10 -16 -10 -8 0
-12 5 -9 10 3 6 10 10 16 10 5 0 9 -4 9 -10z m-93 -16 c-3 -3 -12 -4 -19 -1
-8 3 -5 6 6 6 11 1 17 -2 13 -5z m90 -66 c-3 -8 -6 -5 -6 6 -1 11 2 17 5 13 3
-3 4 -12 1 -19z m-35 -20 c-8 -8 -9 -4 -5 13 4 13 8 18 11 10 2 -7 -1 -18 -6
-23z m-30 -8 c4 -23 -1 -33 -19 -45 -21 -14 -23 -14 -23 0 0 9 7 18 15 21 30
12 15 27 -20 21 -19 -3 -35 -2 -35 4 0 9 14 13 37 10 6 -1 14 3 18 9 11 18 23
10 27 -20z m-63 -51 c-20 -12 -26 -11 -32 5 -4 10 -1 13 7 10 8 -3 18 0 22 7
6 10 9 10 12 0 2 -7 -2 -17 -9 -22z m-1069 -8 c0 -6 -11 -22 -25 -37 -29 -31
-32 -26 -10 16 15 29 35 40 35 21z m1215 -1 c-3 -5 -10 -10 -16 -10 -5 0 -9 5
-9 10 0 6 7 10 16 10 8 0 12 -4 9 -10z m-4 -133 c-8 -8 -11 -7 -11 4 0 9 3 19
7 23 4 4 9 2 11 -4 3 -7 -1 -17 -7 -23z m-160 -120 c-8 -8 -11 -7 -11 4 0 9 3
19 7 23 4 4 9 2 11 -4 3 -7 -1 -17 -7 -23z m-331 4 c0 -11 -4 -23 -10 -26 -6
-4 -10 5 -10 19 0 14 5 26 10 26 6 0 10 -9 10 -19z m2230 -18 c0 -24 -25 -9
-28 17 -3 21 -2 22 12 11 9 -7 16 -20 16 -28z m-1949 -56 c-8 -8 -11 -5 -11 9
0 27 14 41 18 19 2 -9 -1 -22 -7 -28z m-1284 7 c-3 -3 -12 -4 -19 -1 -8 3 -5
6 6 6 11 1 17 -2 13 -5z m3158 -13 c-3 -6 -14 -11 -23 -11 -13 0 -13 2 4 14
21 15 30 14 19 -3z m61 -47 c-11 -8 -27 -14 -35 -13 -11 0 -9 3 5 9 12 5 25
14 29 20 4 6 10 8 13 5 4 -4 -2 -13 -12 -21z m139 -64 c-3 -5 -15 -10 -26 -10
-10 0 -19 5 -19 10 0 6 12 10 26 10 14 0 23 -4 19 -10z m-1983 -42 c-7 -7 -12
-8 -12 -2 0 14 12 26 19 19 2 -3 -1 -11 -7 -17z m1935 -29 c-3 -23 -13 -49
-21 -58 -15 -14 -16 -12 -16 16 0 40 16 83 31 83 8 0 10 -14 6 -41z m-227 14
c-1 -16 -26 -40 -50 -48 -25 -7 -25 -7 4 24 29 30 46 39 46 24z m-1926 -39 c6
-15 8 -15 32 1 29 19 49 10 21 -9 -9 -7 -17 -23 -17 -35 0 -13 -13 -36 -30
-53 -29 -29 -38 -48 -22 -48 17 0 82 52 82 65 0 17 16 20 25 5 14 -23 -57
-110 -101 -124 -12 -3 -29 -15 -39 -26 -19 -21 -45 -27 -45 -10 0 6 4 10 9 10
5 0 13 9 16 20 3 11 13 20 21 20 8 0 14 7 14 15 0 8 -4 15 -10 15 -5 0 -10 -4
-10 -10 0 -5 -6 -10 -14 -10 -8 0 -21 -9 -29 -20 -9 -13 -20 -18 -31 -14 -22
8 -21 11 14 51 28 32 30 32 31 11 1 -15 4 -10 10 15 5 21 21 49 36 62 22 20
25 24 11 25 -10 0 -18 -4 -18 -10 0 -5 -4 -10 -10 -10 -16 0 -12 19 12 50 25
34 33 37 42 14z m2066 8 c0 -13 -12 -22 -22 -16 -10 6 -1 24 13 24 5 0 9 -4 9
-8z m-2730 -16 c0 -7 -12 -21 -26 -31 -25 -16 -25 -16 -13 7 10 20 27 37 37
38 1 0 2 -6 2 -14z m910 4 c0 -5 -5 -10 -11 -10 -5 0 -7 5 -4 10 3 6 8 10 11
10 2 0 4 -4 4 -10z m-1133 -22 c-3 -8 -6 -5 -6 6 -1 11 2 17 5 13 3 -3 4 -12
1 -19z m3318 -6 c0 -18 -20 -15 -23 4 -3 10 1 15 10 12 7 -3 13 -10 13 -16z
m-3831 -8 c9 -8 16 -11 16 -6 0 5 10 12 23 14 27 5 52 -16 40 -35 -4 -6 -10
-39 -13 -72 -6 -68 -21 -78 -48 -30 -9 16 -23 36 -31 44 -11 13 -14 12 -23 -2
-5 -9 -15 -17 -23 -17 -8 0 -11 -8 -8 -22 4 -22 3 -21 -21 5 -14 15 -30 27
-36 27 -6 0 -8 10 -4 25 7 28 -3 32 -32 10 -25 -19 -38 -19 -31 -1 4 10 1 13
-9 9 -18 -7 -18 6 1 31 14 19 15 19 36 0 22 -19 22 -19 16 4 -4 16 -2 22 6 19
7 -2 32 -1 57 3 67 11 67 11 84 -6z m1556 12 c0 -3 -4 -8 -10 -11 -5 -3 -10
-1 -10 4 0 6 5 11 10 11 6 0 10 -2 10 -4z m1810 -61 c-7 -9 -15 -13 -17 -11
-7 7 7 26 19 26 6 0 6 -6 -2 -15z m126 -4 c0 -11 -3 -18 -7 -15 -4 2 -10 -5
-14 -16 -3 -11 -10 -20 -15 -20 -12 0 -1 30 18 53 19 21 18 21 18 -2z m-160
-48 c-10 -10 -19 5 -10 18 6 11 8 11 12 0 2 -7 1 -15 -2 -18z m-3341 -24 c11
-16 1 -19 -13 -3 -7 8 -8 14 -3 14 5 0 13 -5 16 -11z m1525 -39 c0 -5 -2 -10
-4 -10 -3 0 -8 5 -11 10 -3 6 -1 10 4 10 6 0 11 -4 11 -10z m-1366 -35 c3 -9
1 -15 -7 -14 -38 5 -56 -2 -50 -18 4 -11 3 -14 -5 -9 -17 10 -15 27 6 42 23
18 49 17 56 -1z m763 -47 c-3 -22 -4 -21 -11 4 -5 16 -5 36 0 45 7 16 8 15 11
-4 3 -13 3 -33 0 -45z m357 37 c-6 -16 -24 -21 -24 -7 0 11 11 22 21 22 5 0 6
-7 3 -15z m1943 -17 c-3 -8 -6 -5 -6 6 -1 11 2 17 5 13 3 -3 4 -12 1 -19z
m-2337 -7 c0 -14 -6 -17 -25 -13 -36 6 -31 32 7 32 11 0 18 -7 18 -19z m610
-11 c0 -5 -4 -10 -10 -10 -5 0 -10 5 -10 10 0 6 5 10 10 10 6 0 10 -4 10 -10z
m-50 -17 c-1 -19 -86 -81 -97 -70 -6 7 38 47 53 47 6 0 14 7 18 15 5 15 26 21
26 8z m-606 -88 c-4 -15 -2 -25 5 -25 5 0 15 -10 22 -21 19 -37 -10 -42 -43
-8 -16 16 -34 29 -39 29 -6 0 -7 5 -4 10 3 6 1 10 -4 10 -6 0 -11 4 -11 9 0 4
11 6 25 3 15 -2 25 0 25 7 0 6 7 11 15 11 11 0 14 -7 9 -25z m-1139 -15 c10
-11 14 -20 9 -20 -12 1 -44 25 -44 34 0 12 17 6 35 -14z m-294 -28 c-7 -14 -8
-23 -1 -27 5 -3 10 1 10 9 0 23 18 19 25 -5 5 -13 2 -25 -6 -30 -7 -4 -14 -20
-15 -36 -1 -15 -2 -34 -3 -41 -1 -8 -11 -11 -27 -8 -31 6 -40 13 -30 23 4 4
10 2 14 -4 4 -6 7 10 8 35 1 71 14 126 26 114 7 -7 6 -16 -1 -30z m2039 18 c7
-14 21 -20 43 -20 18 0 56 -9 85 -20 63 -24 129 -26 180 -5 41 18 58 15 149
-21 34 -13 72 -24 85 -24 13 0 55 -16 94 -35 38 -20 92 -42 121 -51 49 -14 53
-18 81 -77 57 -119 176 -210 312 -237 30 -6 68 -16 83 -22 16 -6 42 -11 58
-10 16 0 29 -4 29 -9 0 -13 -26 -39 -39 -39 -14 0 -91 -74 -91 -88 0 -6 -11
-17 -24 -24 -13 -7 -46 -38 -72 -67 -27 -30 -43 -52 -36 -47 7 4 15 1 18 -8 4
-10 18 -16 35 -16 29 0 38 -13 19 -25 -5 -3 -10 -12 -10 -18 0 -7 4 -6 10 3 5
8 10 11 10 6 0 -14 -40 -75 -59 -89 -9 -6 -30 -30 -46 -51 -17 -22 -42 -46
-56 -55 -14 -9 -41 -28 -60 -43 -94 -74 -131 -98 -147 -98 -10 0 -22 -4 -28
-10 -5 -5 -38 -16 -74 -24 -59 -14 -65 -14 -74 1 -11 19 -86 105 -101 115 -5
3 -22 17 -37 30 -15 13 -58 39 -95 58 -57 29 -78 34 -129 33 -59 -1 -61 0 -56
23 2 13 12 26 22 29 16 5 16 11 -6 88 -54 196 -63 224 -72 252 -6 17 -20 62
-31 100 -11 39 -34 109 -50 157 -17 48 -35 118 -41 155 -6 37 -20 87 -31 112
-22 51 -23 63 -7 79 17 17 26 15 38 -8z m-1870 0 c0 -5 -2 -10 -4 -10 -3 0 -8
5 -11 10 -3 6 -1 10 4 10 6 0 11 -4 11 -10z m3790 -10 c0 -5 -5 -10 -11 -10
-5 0 -7 5 -4 10 3 6 8 10 11 10 2 0 4 -4 4 -10z m-2626 -34 c-7 -30 -24 -35
-24 -8 0 18 20 45 27 38 2 -2 1 -15 -3 -30z m-1140 -1 c-4 -8 -10 -12 -15 -9
-14 8 -10 24 6 24 9 0 12 -6 9 -15z m186 5 c0 -5 -2 -10 -4 -10 -3 0 -8 5 -11
10 -3 6 -1 10 4 10 6 0 11 -4 11 -10z m3548 -2 c-6 -18 -28 -21 -28 -4 0 9 7
16 16 16 9 0 14 -5 12 -12z m-3680 -32 c15 5 15 4 2 -5 -15 -11 -60 -15 -60
-6 0 3 8 13 18 23 16 16 17 16 20 0 2 -11 9 -15 20 -12z m-80 4 c11 -17 10
-20 -7 -20 -19 0 -35 23 -24 34 10 10 18 7 31 -14z m697 -81 c-10 -14 -33 2
-43 29 -6 18 -6 33 1 44 9 14 14 11 29 -24 10 -22 16 -44 13 -49z m-791 62 c3
-5 -1 -11 -9 -15 -9 -3 -15 0 -15 9 0 16 16 20 24 6z m716 -23 c0 -6 -7 -18
-15 -27 -8 -9 -25 -29 -38 -45 -14 -17 -29 -26 -35 -22 -8 5 1 23 30 57 41 49
58 60 58 37z m500 -2 c0 -8 6 -16 13 -19 6 -2 9 -8 5 -12 -4 -4 -14 -2 -23 5
-17 14 -20 40 -5 40 6 0 10 -6 10 -14z m-651 -92 c-12 -14 -14 -14 -20 3 -7
16 -8 16 -8 1 -1 -10 -6 -17 -13 -15 -6 1 -14 -7 -16 -18 -4 -17 -2 -18 12 -6
9 8 19 12 21 9 7 -7 -5 -38 -15 -38 -5 0 -14 -16 -20 -36 -9 -25 -16 -34 -27
-30 -9 4 -21 -1 -29 -11 -7 -10 -14 -13 -14 -6 0 6 5 15 10 18 6 3 10 15 10
25 0 10 4 20 9 22 5 2 5 27 0 61 -10 61 -1 102 12 57 l7 -25 7 23 c8 26 25 30
25 5 0 -14 2 -14 20 2 11 10 20 25 21 34 1 9 6 -1 11 -22 8 -28 7 -41 -3 -53z
m167 49 c-4 -16 -7 -37 -7 -47 0 -18 -1 -18 -16 -3 -14 13 -14 20 -3 46 16 39
35 41 26 4z m468 1 c22 -21 20 -32 -6 -36 -12 -2 -23 -10 -25 -18 -4 -13 -3
-13 7 0 10 13 11 12 6 -3 -3 -10 -6 -23 -6 -29 0 -6 -9 -3 -19 6 -17 16 -18
20 -4 47 8 16 19 27 24 24 5 -4 6 1 3 9 -8 20 0 20 20 0z m-757 -26 c-3 -7 -5
-2 -5 12 0 14 2 19 5 13 2 -7 2 -19 0 -25z m362 -42 c-9 -8 -10 -7 -6 6 3 10
2 20 -4 23 -5 4 -6 11 -3 17 5 7 11 2 16 -12 6 -15 5 -27 -3 -34z m-965 -1 c3
-9 0 -15 -9 -15 -9 0 -12 6 -9 15 4 8 7 15 9 15 2 0 5 -7 9 -15z m802 -5 c28
0 34 -4 34 -22 0 -17 -3 -19 -12 -10 -16 16 -28 15 -28 -2 0 -7 -17 -22 -37
-31 -21 -10 -42 -20 -46 -23 -5 -2 0 13 12 34 11 22 23 48 27 59 4 12 8 15 11
8 3 -7 20 -13 39 -13z m164 -16 c0 -2 -7 -4 -15 -4 -8 0 -15 4 -15 10 0 5 7 7
15 4 8 -4 15 -8 15 -10z m-1213 -26 c-3 -7 -5 -2 -5 12 0 14 2 19 5 13 2 -7 2
-19 0 -25z m63 2 c0 -11 -2 -20 -5 -20 -2 0 -9 9 -15 20 -9 16 -8 20 5 20 8 0
15 -9 15 -20z m130 0 c0 -5 -5 -10 -11 -10 -5 0 -7 5 -4 10 3 6 8 10 11 10 2
0 4 -4 4 -10z m-230 -31 c0 -16 -4 -28 -9 -25 -5 4 -8 14 -6 24 2 9 4 20 4 25
1 4 3 7 6 7 3 0 5 -14 5 -31z m815 21 c3 -5 -1 -10 -9 -10 -9 0 -16 5 -16 10
0 6 4 10 9 10 6 0 13 -4 16 -10z m22 -12 c-3 -8 -6 -5 -6 6 -1 11 2 17 5 13 3
-3 4 -12 1 -19z m433 12 c0 -5 -5 -10 -11 -10 -5 0 -7 5 -4 10 3 6 8 10 11 10
2 0 4 -4 4 -10z m31 -17 c-12 -20 -14 -14 -5 12 4 9 9 14 11 11 3 -2 0 -13 -6
-23z m-1041 -19 c0 -13 -4 -24 -10 -24 -5 0 -10 14 -10 31 0 17 4 28 10 24 6
-3 10 -17 10 -31z m920 16 c0 -5 -5 -10 -11 -10 -5 0 -7 5 -4 10 3 6 8 10 11
10 2 0 4 -4 4 -10z m-317 -32 c-22 -45 -26 -48 -17 -13 8 37 13 45 24 45 5 0
1 -15 -7 -32z m283 20 c4 -7 3 -8 -4 -4 -7 4 -12 2 -12 -4 0 -6 -5 -8 -11 -4
-8 4 -7 9 2 15 18 11 17 11 25 -3z m-91 -18 c3 -5 13 -6 22 -3 11 4 14 3 9 -5
-4 -7 -18 -12 -31 -12 -17 0 -27 -9 -39 -40 -20 -50 -46 -54 -45 -7 1 31 1 31
10 7 8 -24 8 -24 7 5 0 50 1 53 25 58 12 2 25 5 29 6 4 0 9 -3 13 -9z m225 0
c0 -5 -5 -10 -11 -10 -5 0 -7 5 -4 10 3 6 8 10 11 10 2 0 4 -4 4 -10z m-456
-42 c-3 -4 -12 -8 -20 -8 -12 0 -12 4 -2 20 8 13 15 16 19 8 4 -7 5 -16 3 -20z
m3576 -25 c-11 -17 -11 -17 -6 0 3 10 6 24 7 30 0 9 2 9 5 0 3 -7 0 -20 -6
-30z m-4357 -8 c-7 -21 -13 -19 -13 6 0 11 4 18 10 14 5 -3 7 -12 3 -20z m-33
-7 c0 -13 -5 -30 -10 -38 -7 -11 -10 -5 -10 23 0 20 5 37 10 37 6 0 10 -10 10
-22z m-215 -27 c3 -5 1 -12 -5 -16 -5 -3 -10 1 -10 9 0 18 6 21 15 7z m172
-23 c-3 -8 -6 -5 -6 6 -1 11 2 17 5 13 3 -3 4 -12 1 -19z m93 -63 c3 -44 1
-52 -10 -35 -5 8 -10 33 -10 55 1 46 17 30 20 -20z m955 25 c-3 -5 -11 -10
-16 -10 -6 0 -7 5 -4 10 3 6 11 10 16 10 6 0 7 -4 4 -10z m-1008 -32 c-3 -8
-6 -5 -6 6 -1 11 2 17 5 13 3 -3 4 -12 1 -19z m240 -50 c-3 -8 -6 -5 -6 6 -1
11 2 17 5 13 3 -3 4 -12 1 -19z m-330 -35 c-3 -10 -5 -4 -5 12 0 17 2 24 5 18
2 -7 2 -21 0 -30z m-563 3 c-3 -9 -10 -16 -15 -16 -6 0 -5 9 1 21 13 24 24 20
14 -5z m793 -38 c-3 -7 -5 -2 -5 12 0 14 2 19 5 13 2 -7 2 -19 0 -25z m-117
12 c0 -5 -4 -10 -10 -10 -5 0 -10 5 -10 10 0 6 5 10 10 10 6 0 10 -4 10 -10z
m80 -5 c0 -8 -2 -15 -4 -15 -2 0 -6 7 -10 15 -3 8 -1 15 4 15 6 0 10 -7 10
-15z m-33 -37 c-3 -7 -5 -2 -5 12 0 14 2 19 5 13 2 -7 2 -19 0 -25z m2017 -21
c9 -4 12 3 10 24 -2 16 0 29 4 29 9 0 37 -42 34 -52 -1 -5 5 -8 13 -8 8 0 15
4 15 8 0 21 90 7 110 -17 3 -3 27 -17 55 -31 l50 -25 -33 -3 c-18 -2 -40 2
-48 9 -12 10 -19 8 -37 -8 -17 -17 -33 -20 -75 -18 -29 2 -59 8 -66 14 -7 6
-16 8 -19 4 -4 -3 -7 8 -7 25 0 32 -20 56 -28 33 -4 -11 -6 -11 -13 0 -7 11
-9 10 -9 -4 0 -14 -6 -16 -32 -12 -41 8 -42 9 -28 34 11 22 30 28 30 11 0 -13
37 -13 45 -1 3 5 1 12 -5 16 -6 4 -7 11 -3 18 4 7 10 1 15 -15 5 -15 15 -29
22 -31z m-326 -24 c2 -13 -1 -23 -7 -23 -6 0 -11 5 -11 11 0 5 -5 7 -10 4 -15
-9 -52 -95 -47 -108 2 -7 7 3 11 21 5 19 14 33 24 34 31 2 37 4 47 9 6 3 27 5
48 4 20 -1 37 1 37 6 0 4 9 5 20 2 11 -3 20 -9 20 -14 0 -5 9 -4 20 3 19 12
19 13 -1 24 -21 11 -21 11 2 17 28 8 29 7 32 -30 2 -28 4 -29 44 -28 24 1 49
8 58 15 8 7 15 8 15 2 0 -5 -7 -13 -16 -16 -12 -5 -14 -14 -9 -46 4 -25 3 -40
-3 -40 -26 0 -61 21 -67 39 -7 24 -25 28 -25 6 0 -8 -12 -26 -27 -40 -26 -23
-29 -24 -40 -8 -12 15 -13 13 -13 -13 0 -23 -2 -26 -11 -14 -8 12 -9 8 -7 -15
1 -16 -3 -40 -10 -52 -17 -31 -15 -46 7 -40 15 3 17 0 13 -16 -4 -15 -1 -19
10 -14 22 8 89 -14 85 -27 -2 -6 -8 -11 -13 -11 -29 -2 -84 -17 -89 -25 -3 -6
1 -7 9 -4 20 8 21 -13 2 -32 -10 -9 -17 -11 -21 -4 -5 8 -11 7 -21 -1 -11 -9
-15 -8 -20 5 -4 10 -18 16 -35 16 -16 0 -29 4 -29 9 0 5 -13 14 -30 21 -35 15
-38 26 -9 33 12 3 18 10 15 16 -4 6 -15 7 -29 2 -17 -7 -21 -15 -19 -36 2 -16
-3 -32 -10 -36 -7 -4 -9 -11 -5 -15 4 -4 16 1 27 11 18 16 20 16 26 1 3 -9 12
-16 20 -16 8 0 14 -4 14 -10 0 -13 -27 -13 -35 0 -3 5 -11 7 -18 5 -7 -2 -25
-6 -42 -10 -23 -5 -27 -4 -18 6 14 14 7 36 -20 66 -16 18 -18 25 -8 37 7 8 10
20 6 27 -6 8 -10 7 -16 -2 -32 -51 18 135 56 209 19 36 35 72 35 79 0 17 31
33 60 30 17 -1 26 -9 28 -24z m-275 -53 c-3 -11 -9 -17 -15 -14 -5 3 -4 12 3
20 16 19 18 18 12 -6z m-1927 -25 c2 -16 -4 -29 -16 -35 -15 -8 -19 -7 -16 2
3 7 7 26 11 42 7 32 17 28 21 -9z m1819 15 c3 -5 1 -10 -4 -10 -6 0 -11 5 -11
10 0 6 2 10 4 10 3 0 8 -4 11 -10z m1030 -10 c3 -5 -1 -10 -9 -10 -9 0 -16 5
-16 10 0 6 4 10 9 10 6 0 13 -4 16 -10z m-2955 -10 c21 -13 10 -19 -23 -13
-21 4 -25 8 -15 14 16 11 20 11 38 -1z m1995 -9 c-3 -6 -11 -11 -17 -11 -6 0
-6 6 2 15 14 17 26 13 15 -4z m-1947 -22 c-6 -16 -12 -28 -14 -26 -5 5 13 57
20 57 3 0 0 -14 -6 -31z m1817 21 c-3 -5 -10 -10 -16 -10 -5 0 -9 5 -9 10 0 6
7 10 16 10 8 0 12 -4 9 -10z m-1658 -42 c-3 -7 -5 -2 -5 12 0 14 2 19 5 13 2
-7 2 -19 0 -25z m1293 23 c0 -12 -20 -25 -27 -18 -7 7 6 27 18 27 5 0 9 -4 9
-9z m1525 -2 c4 -6 5 -12 2 -15 -7 -7 -37 7 -37 17 0 13 27 11 35 -2z m-1425
-14 c0 -8 -4 -15 -10 -15 -5 0 -7 7 -4 15 4 8 8 15 10 15 2 0 4 -7 4 -15z
m308 4 c-2 -6 -7 -10 -11 -10 -4 1 -15 1 -24 1 -15 0 -16 2 -3 10 20 13 43 13
38 -1z m-1565 -39 c-7 -28 -13 -25 -13 6 0 14 4 23 9 20 5 -3 7 -15 4 -26z
m2748 10 c31 -25 13 -26 -26 0 -20 13 -24 20 -14 20 9 0 27 -9 40 -20z m-1620
-23 c-8 -8 -11 -7 -11 4 0 20 13 34 18 19 3 -7 -1 -17 -7 -23z m146 -24 c-3
-10 -5 -4 -5 12 0 17 2 24 5 18 2 -7 2 -21 0 -30z m328 -3 c-3 -5 -10 -10 -16
-10 -5 0 -9 5 -9 10 0 6 7 10 16 10 8 0 12 -4 9 -10z m-2105 -10 c0 -5 -5 -10
-11 -10 -5 0 -7 5 -4 10 3 6 8 10 11 10 2 0 4 -4 4 -10z m1947 -10 c11 -17 10
-21 -8 -31 -17 -9 -25 -8 -38 6 -15 15 -15 17 3 31 26 18 29 18 43 -6z m106 0
c-3 -10 -11 -25 -19 -31 -17 -14 -18 -8 -2 26 13 30 28 34 21 5z m176 -32
c-14 -48 -29 -72 -29 -45 0 21 31 99 37 93 2 -2 -1 -24 -8 -48z m-469 9 c0 -8
-12 -20 -27 -28 -16 -8 -31 -18 -34 -22 -6 -9 -39 1 -39 12 0 9 71 50 88 51 6
0 12 -6 12 -13z m120 -3 c0 -8 -4 -12 -10 -9 -5 3 -10 10 -10 16 0 5 5 9 10 9
6 0 10 -7 10 -16z m2663 9 c-7 -2 -19 -2 -25 0 -7 3 -2 5 12 5 14 0 19 -2 13
-5z m-270 -23 c-5 -20 -33 -29 -33 -10 0 7 25 27 37 30 0 0 -1 -9 -4 -20z
m-2433 -10 c0 -5 -5 -10 -11 -10 -5 0 -7 5 -4 10 3 6 8 10 11 10 2 0 4 -4 4
-10z m-195 -30 c-3 -5 -12 -10 -18 -10 -7 0 -6 4 3 10 19 12 23 12 15 0z
m-865 -21 c0 -11 -4 -18 -10 -14 -5 3 -7 12 -3 20 7 21 13 19 13 -6z m1385
-46 c-6 -18 -35 -16 -35 1 0 8 5 18 10 21 6 3 10 16 11 28 1 18 3 16 10 -8 5
-16 7 -36 4 -42z m2065 52 c-7 -8 -17 -15 -22 -15 -6 0 -5 7 2 15 7 8 17 15
22 15 6 0 5 -7 -2 -15z m-2510 -16 c-7 -11 -14 -18 -17 -15 -3 3 0 12 7 21 18
21 23 19 10 -6z m-1200 -9 c0 -5 -4 -10 -10 -10 -5 0 -10 5 -10 10 0 6 5 10
10 10 6 0 10 -4 10 -10z m1130 -8 c0 -5 -14 -24 -30 -42 -22 -25 -33 -31 -41
-23 -9 9 -3 20 22 42 34 31 49 38 49 23z m140 4 c0 -2 -7 -9 -15 -16 -13 -11
-14 -10 -9 4 5 14 24 23 24 12z m492 -13 c6 -23 -1 -45 -13 -37 -12 7 -12 54
0 54 5 0 11 -8 13 -17z m-372 -28 c-7 -8 -17 -15 -23 -15 -5 0 -2 9 8 20 21
23 35 19 15 -5z m-83 -10 c-4 -8 -16 -15 -28 -15 -21 0 -21 0 2 19 26 21 35
20 26 -4z m888 15 c3 -5 -3 -10 -14 -10 -12 0 -21 -7 -21 -15 0 -11 8 -13 30
-8 31 6 39 -4 18 -25 -17 -17 -39 -15 -54 6 -12 16 -13 16 -14 -4 0 -15 -8
-23 -27 -27 -37 -8 -95 -45 -88 -56 3 -5 29 4 59 20 30 16 71 31 92 33 22 2
55 7 74 11 l35 6 -23 -20 c-13 -11 -29 -18 -37 -15 -8 3 -24 -4 -36 -15 -13
-12 -29 -21 -36 -21 -7 0 -13 -4 -13 -8 0 -5 -12 -14 -27 -21 -19 -9 -23 -15
-15 -23 9 -9 17 -7 34 9 13 11 33 24 44 27 17 5 22 2 26 -18 3 -14 2 -23 -2
-21 -4 3 -29 -7 -54 -21 -38 -21 -46 -23 -46 -10 0 14 -6 12 -35 -6 -19 -13
-35 -27 -35 -32 0 -5 7 -3 15 4 8 7 26 9 44 5 17 -3 32 -2 36 5 3 5 10 8 14 6
4 -3 27 1 52 8 l44 14 -3 45 c-3 42 0 47 27 62 17 8 39 15 50 15 20 0 20 0 -1
-36 -12 -20 -27 -38 -35 -41 -14 -6 -18 -33 -4 -33 5 0 11 7 15 15 3 8 14 15
24 15 10 0 28 9 39 19 45 42 84 21 73 -39 -3 -19 -5 -41 -4 -47 1 -7 2 -20 3
-28 2 -24 21 -18 31 10 9 23 30 35 30 17 0 -19 -26 -62 -37 -62 -15 0 -17 -16
-3 -25 6 -3 10 -2 10 3 0 6 8 9 18 8 11 -1 16 5 14 17 -2 9 2 17 8 17 5 0 10
21 10 46 0 41 2 45 23 42 20 -3 22 -8 19 -58 -3 -79 -10 -103 -28 -96 -8 3
-25 1 -39 -4 -15 -6 -26 -6 -30 0 -10 16 -25 11 -18 -6 4 -10 -1 -17 -16 -21
-11 -3 -21 -9 -21 -13 0 -5 -9 -12 -21 -15 -23 -8 -15 -21 16 -27 10 -2 22
-14 25 -28 5 -20 12 -25 45 -27 32 -1 35 0 15 6 -22 7 -20 9 25 19 28 6 58 14
69 18 14 5 17 3 15 -11 -2 -10 -17 -23 -34 -28 -16 -6 -34 -16 -38 -23 -4 -8
-15 -14 -22 -14 -8 0 -15 -6 -16 -12 0 -10 -2 -10 -6 0 -2 6 -13 12 -23 12
-10 0 -21 6 -24 13 -3 6 -3 1 0 -11 5 -20 2 -23 -18 -22 -59 5 -88 0 -88 -16
0 -13 -3 -14 -15 -4 -14 11 -71 23 -60 12 11 -11 -68 -31 -86 -21 -10 5 -20 5
-23 0 -7 -10 -128 -23 -213 -22 -32 0 -65 -4 -72 -9 -18 -11 -41 -2 -41 16 0
8 -9 14 -20 14 -11 0 -20 4 -20 9 0 4 20 7 45 5 25 -2 45 1 45 6 0 6 12 10 26
10 23 0 25 3 19 30 -6 26 -4 30 15 30 12 0 18 5 15 10 -8 12 8 13 20 1 6 -5
20 -5 35 1 l25 11 -33 7 c-18 4 -42 6 -52 3 -10 -3 -21 0 -24 6 -5 7 -22 9
-47 5 -34 -6 -39 -4 -39 13 0 20 6 20 154 18 117 -2 159 1 177 12 23 13 23 14
2 8 -13 -4 -23 -2 -23 3 0 13 53 23 60 12 3 -5 30 -10 60 -12 l55 -3 -25 -22
c-13 -13 -33 -23 -45 -23 -12 0 -30 -7 -41 -15 -18 -15 -18 -15 8 -13 15 2 27
-1 27 -6 -1 -9 20 -26 32 -26 4 0 10 7 13 16 4 12 2 15 -9 10 -8 -3 -15 0 -15
7 0 7 15 13 35 14 37 2 43 -5 23 -25 -9 -9 -6 -12 15 -12 15 0 26 3 25 8 -2 4
2 7 7 7 6 0 9 -4 7 -10 -2 -6 1 -5 8 1 14 13 3 44 -14 38 -13 -5 -14 55 -1 96
6 19 4 22 -9 17 -9 -4 -16 -1 -16 5 0 7 -6 3 -14 -8 -15 -19 -15 -19 -31 1
-16 20 -16 20 -12 -2 3 -15 0 -23 -8 -23 -8 0 -11 8 -8 20 5 17 1 20 -24 17
-16 -2 -35 -7 -43 -12 -21 -13 -100 -23 -100 -13 0 4 7 8 16 8 17 0 94 42 94
51 0 4 -18 9 -41 11 -33 3 -44 -1 -58 -18 -13 -16 -28 -21 -60 -21 -44 0 -44
0 -21 17 15 11 19 19 11 24 -6 4 -16 4 -21 1 -6 -4 -17 -1 -25 5 -12 10 -15
10 -15 0 0 -10 -3 -10 -15 0 -24 20 -18 27 38 45 29 10 64 31 80 48 19 19 22
27 10 21 -10 -4 -33 -8 -51 -9 -33 -2 -59 -15 -29 -15 16 0 25 -20 10 -20 -5
0 -18 -3 -30 -6 -26 -7 -31 10 -9 35 7 9 17 27 21 40 7 22 5 23 -27 16 -34 -7
-72 -41 -62 -56 3 -5 -2 -12 -10 -15 -9 -3 -16 -10 -16 -15 0 -17 26 2 44 31
9 17 22 28 28 24 6 -4 6 -10 -1 -17 -6 -6 -11 -18 -11 -27 0 -9 -14 -24 -30
-34 -17 -9 -28 -21 -26 -25 4 -6 -42 -28 -74 -36 -44 -12 -60 -20 -65 -35 -3
-10 -14 -21 -23 -23 -16 -4 -16 -5 1 -12 11 -5 24 -2 35 9 10 8 40 18 67 21
41 4 55 11 77 37 15 18 28 27 28 21 0 -7 12 -16 26 -19 l27 -7 -24 -17 c-13
-10 -41 -24 -64 -31 -22 -7 -45 -19 -52 -27 -7 -8 -20 -11 -31 -8 -12 4 -33
-1 -54 -14 -18 -11 -40 -20 -49 -20 -9 0 -22 -7 -29 -15 -7 -9 -21 -13 -31
-10 -9 3 -20 1 -24 -5 -3 -5 1 -10 9 -10 9 0 16 -4 16 -10 0 -5 -12 -10 -26
-10 -14 0 -41 -7 -60 -16 -19 -9 -37 -14 -40 -11 -8 7 56 47 74 47 7 0 10 4 7
10 -10 15 12 47 48 69 18 11 39 31 46 43 6 13 27 34 46 47 19 13 34 26 33 30
-1 3 4 17 11 29 21 39 7 35 -41 -12 -25 -24 -58 -46 -74 -50 -16 -4 -48 -16
-72 -27 -25 -12 -52 -17 -64 -13 -14 4 -18 2 -14 -5 4 -6 0 -11 -8 -11 -9 0
-16 -4 -16 -10 0 -5 -4 -10 -10 -10 -22 0 -8 30 20 45 17 9 30 11 30 5 0 -17
22 -11 27 8 2 10 17 26 32 36 15 11 28 24 28 30 0 22 52 93 72 99 12 3 21 1
21 -5 0 -5 16 -1 35 11 36 21 43 15 24 -20 -9 -19 -9 -19 10 -10 11 6 29 11
40 11 15 0 21 6 21 23 0 17 -2 19 -10 7 -5 -8 -12 -11 -17 -7 -11 12 12 42 31
41 9 -1 16 3 16 8 0 6 24 8 58 7 31 -2 63 0 70 5 9 5 15 2 19 -12 5 -19 7 -18
39 14 19 19 43 34 54 34 10 0 25 6 32 13 24 24 54 32 63 17z m-515 -15 c0 -8
-7 -15 -15 -15 -9 0 -12 6 -9 15 4 8 10 15 15 15 5 0 9 -7 9 -15z m-545 -14
c-3 -6 -11 -11 -17 -11 -6 0 -6 6 2 15 14 17 26 13 15 -4z m465 4 c0 -8 -4
-15 -10 -15 -5 0 -10 7 -10 15 0 8 5 15 10 15 6 0 10 -7 10 -15z m-350 -40
c-14 -16 -50 -21 -50 -6 0 11 18 19 44 20 15 1 16 -2 6 -14z m496 -30 c-4 -14
-13 -25 -21 -25 -19 0 -19 4 2 43 17 34 29 23 19 -18z m34 20 c0 -8 -2 -15 -4
-15 -2 0 -6 7 -10 15 -3 8 -1 15 4 15 6 0 10 -7 10 -15z m-437 -16 c-3 -11 -7
-18 -10 -16 -3 4 -32 -20 -101 -85 -25 -24 -34 -21 -26 9 4 15 11 20 22 16 10
-4 14 -3 10 1 -10 11 69 92 92 93 13 1 16 -4 13 -18z m347 -4 c-7 -9 -15 -13
-17 -11 -7 7 7 26 19 26 6 0 6 -6 -2 -15z m-1570 -9 c0 -8 -4 -18 -10 -21 -5
-3 -10 3 -10 14 0 12 5 21 10 21 6 0 10 -6 10 -14z m1300 -5 c0 -5 -12 -17
-27 -27 -15 -9 -50 -42 -76 -71 -27 -29 -53 -53 -58 -53 -22 0 -5 31 37 66 25
22 60 51 78 66 32 29 46 34 46 19z m68 -38 c-2 -10 -9 -17 -15 -16 -5 1 -21
-12 -34 -29 -41 -52 -103 -108 -126 -114 -13 -4 -20 -11 -16 -17 4 -6 1 -7 -7
-2 -7 4 -16 2 -22 -6 -8 -12 -9 -11 -6 1 3 8 47 52 99 97 52 45 99 87 104 92
16 16 27 13 23 -6z m132 -3 c0 -24 -41 -80 -59 -80 -6 0 -16 -9 -23 -20 -7
-11 -18 -20 -24 -20 -6 0 -23 -9 -38 -21 -15 -12 -26 -15 -26 -9 0 7 -7 9 -17
6 -15 -6 -15 -4 2 14 21 24 40 27 31 4 -3 -8 -2 -12 4 -9 6 3 10 13 10 21 0
17 2 19 74 82 49 42 66 51 66 32z m40 -170 c0 -5 -8 -10 -18 -10 -10 0 -27 -8
-38 -17 -70 -64 -98 -84 -109 -79 -7 2 -21 -4 -31 -15 -19 -21 -75 -52 -81
-45 -13 13 68 77 153 122 102 53 124 61 124 44z m-268 -32 c-6 -6 -15 -8 -19
-4 -4 4 -1 11 7 16 19 12 27 3 12 -12z m581 2 c-3 -11 0 -20 6 -20 6 0 11 -4
11 -10 0 -5 -9 -10 -21 -10 -14 0 -19 5 -16 14 3 8 1 17 -6 20 -9 3 -8 8 3 15
22 16 29 13 23 -9z m2205 -12 c-1 -18 1 -40 3 -48 3 -10 -5 -14 -28 -15 -43 0
-48 25 -12 64 15 17 30 31 32 31 3 0 5 -15 5 -32z m-2730 15 c-24 -49 -37 -63
-86 -88 -31 -16 -65 -39 -74 -50 -14 -16 -17 -17 -18 -4 0 8 9 25 20 37 11 12
20 26 20 33 0 6 7 9 15 5 8 -3 15 -1 15 5 0 5 21 23 47 39 46 29 68 38 61 23z
m622 -9 c0 -2 -14 -4 -31 -4 -16 0 -28 4 -25 9 5 8 56 3 56 -5z m-151 -3 c11
-7 9 -10 -8 -16 -11 -3 -26 -3 -33 0 -7 4 -4 -1 6 -9 19 -16 19 -16 -2 -16
-15 0 -22 6 -22 19 0 27 32 39 59 22z m2299 -19 c2 -15 -2 -22 -12 -22 -11 0
-16 9 -16 26 0 31 23 28 28 -4z m-182 0 c-3 -5 -16 -12 -28 -15 l-23 -6 24 20
c23 19 39 20 27 1z m-1958 -4 c-2 -5 -7 -9 -12 -8 -5 1 -12 -3 -15 -9 -4 -6
-11 -3 -19 9 -10 17 -8 19 19 18 16 -1 28 -5 27 -10z m2032 8 c0 -3 -4 -8 -10
-11 -5 -3 -10 -1 -10 4 0 6 5 11 10 11 6 0 10 -2 10 -4z m-2860 -45 c0 -20
-28 -56 -37 -47 -5 5 25 66 32 66 3 0 5 -9 5 -19z m2730 15 c0 -3 -4 -8 -10
-11 -5 -3 -10 -1 -10 4 0 6 5 11 10 11 6 0 10 -2 10 -4z m-2480 -52 c0 -11
-51 -72 -66 -78 -22 -9 -17 8 17 47 29 33 49 46 49 31z m1130 -14 c0 -5 -5
-10 -11 -10 -5 0 -7 5 -4 10 3 6 8 10 11 10 2 0 4 -4 4 -10z m-1293 -17 c-9
-9 -20 -13 -24 -9 -4 4 -1 11 7 16 25 16 35 11 17 -7z m528 7 c3 -5 1 -10 -6
-10 -8 0 -8 -4 2 -16 11 -14 9 -15 -26 -8 -34 6 -37 5 -31 -11 6 -16 1 -17
-49 -11 -35 4 -55 2 -55 -4 0 -5 -14 -10 -31 -10 -17 0 -38 -4 -48 -9 -16 -9
-17 -7 -7 24 12 39 19 41 131 50 44 4 82 9 84 11 8 8 30 4 36 -6z m715 -30 c0
-5 -2 -10 -4 -10 -3 0 -8 5 -11 10 -3 6 -1 10 4 10 6 0 11 -4 11 -10z m-1032
-28 c-31 -15 -66 -39 -77 -53 -24 -31 -61 -45 -61 -23 0 8 4 14 9 14 5 0 24
12 41 27 47 39 91 62 120 62 19 -1 11 -7 -32 -27z m-191 -24 c-3 -8 -6 -5 -6
6 -1 11 2 17 5 13 3 -3 4 -12 1 -19z m2403 18 c0 -8 -51 -13 -56 -5 -3 5 9 9
25 9 17 0 31 -2 31 -4z m-2020 -36 c0 -5 -10 -10 -22 -9 -22 0 -22 1 -3 9 11
5 21 9 23 9 1 1 2 -3 2 -9z m-236 -58 c-3 -17 -13 -33 -20 -36 -11 -4 -13 1
-8 22 7 28 24 55 30 49 2 -2 1 -18 -2 -35z m-77 -25 c-15 -28 -27 -26 -27 4 0
10 8 19 18 21 24 6 24 4 9 -25z m137 8 c-5 -11 0 -15 17 -14 37 1 67 -8 98
-30 16 -12 32 -21 35 -21 3 0 47 -20 98 -44 92 -43 265 -106 294 -106 9 0 14
10 14 30 0 20 8 35 25 46 14 9 25 24 25 34 0 23 37 70 55 70 28 0 35 -34 15
-77 -10 -22 -24 -43 -31 -47 -11 -5 -11 -7 -1 -12 6 -3 12 -12 12 -21 0 -10 6
-12 23 -8 33 11 35 15 50 93 8 40 19 78 24 83 15 15 47 -4 80 -49 56 -76 85
-89 131 -57 15 12 33 14 59 9 l38 -7 -38 35 -38 35 40 26 c48 32 111 37 112
10 0 -11 3 -13 6 -5 6 16 23 16 23 -1 0 -19 -52 -86 -67 -87 -25 0 -14 -55 15
-76 25 -19 32 -20 97 -8 117 21 304 29 363 14 29 -6 52 -16 52 -21 0 -10 -66
-3 -115 12 -19 6 -43 5 -65 -1 -19 -6 -47 -8 -62 -4 -17 3 -28 1 -28 -5 0 -8
-50 -24 -83 -26 -4 0 -11 -5 -15 -11 -21 -30 -292 -90 -292 -64 0 6 -15 10
-32 10 -24 0 -29 -3 -19 -9 12 -8 9 -11 -13 -17 -18 -4 -24 -9 -16 -14 7 -4 9
-13 6 -19 -10 -15 -26 -14 -26 3 0 7 -11 16 -25 18 -13 3 -22 2 -20 -3 3 -4
-1 -9 -7 -12 -9 -3 -7 -9 6 -19 19 -15 61 -13 82 3 14 11 24 1 24 -25 1 -20 2
-20 14 -3 16 21 40 23 32 2 -3 -8 -1 -15 5 -15 6 0 9 -6 6 -12 -2 -7 -1 -22 4
-33 7 -19 8 -19 8 3 1 16 7 22 24 22 l22 0 -25 21 c-24 20 -24 20 -2 14 14 -4
22 -2 22 6 0 7 13 1 28 -14 15 -15 35 -27 44 -27 11 0 15 -6 11 -21 -4 -16 -8
-18 -14 -7 -7 11 -11 10 -19 -2 -13 -20 -12 -26 4 -43 8 -7 14 -31 14 -52 0
-22 4 -41 10 -43 6 -2 8 -20 5 -41 -3 -21 0 -47 6 -57 6 -11 11 -14 11 -8 0
14 73 10 78 -5 2 -6 8 -8 14 -5 11 7 28 -13 28 -34 0 -18 -41 -5 -58 19 -16
23 -40 24 -66 4 -23 -18 -54 -11 -78 18 -20 22 -22 33 -9 41 5 3 11 -3 14 -14
3 -11 12 -20 21 -20 20 0 20 10 1 46 -17 34 -19 54 -5 54 6 0 10 16 10 35 0
19 -5 35 -10 35 -15 0 -33 -49 -32 -88 0 -31 -1 -32 -18 -17 -13 12 -19 13
-22 4 -3 -8 -16 0 -36 19 -26 25 -39 31 -65 28 -39 -4 -47 -28 -17 -49 12 -8
17 -18 12 -21 -6 -3 -13 0 -15 6 -4 8 -6 9 -6 2 -1 -6 6 -17 14 -24 9 -7 15
-28 14 -49 0 -27 -2 -31 -8 -17 -5 14 -10 16 -15 8 -10 -17 2 -32 26 -32 17 0
20 5 16 40 -2 29 0 40 10 40 10 0 12 -8 7 -31 -6 -25 -4 -30 6 -23 11 6 10 3
-1 -10 -8 -10 -15 -30 -16 -45 -3 -61 -5 -69 -18 -74 -9 -4 -12 0 -9 11 3 14
-4 18 -39 20 -50 3 -53 5 -44 29 7 17 8 17 17 1 12 -22 59 -24 59 -3 0 17 -9
22 -54 29 -44 8 -56 -8 -49 -62 4 -33 3 -43 -5 -38 -7 4 -10 17 -6 31 3 13 0
26 -7 30 -9 6 -11 -2 -7 -31 4 -21 9 -47 13 -56 4 -10 3 -18 -3 -18 -16 0 -45
81 -33 93 6 6 11 18 10 27 0 9 -4 6 -10 -8 -5 -13 -13 -20 -19 -17 -7 4 -7 12
0 25 5 10 9 29 9 42 -1 17 -3 18 -6 6 -2 -10 -10 -18 -18 -18 -11 0 -13 -43
-6 -135 1 -5 6 -3 11 5 8 12 10 9 10 -13 0 -30 28 -87 42 -87 4 0 8 -5 8 -11
0 -8 -4 -9 -13 0 -8 6 -17 8 -20 4 -4 -3 -8 -1 -8 5 -1 7 -3 17 -4 22 -1 6 -3
15 -4 22 0 6 -4 8 -7 5 -8 -8 -53 81 -54 106 0 9 -5 17 -10 17 -6 0 -10 6 -9
13 4 32 -1 40 -16 27 -10 -8 -15 -30 -15 -61 0 -26 -4 -51 -10 -54 -6 -3 -10
4 -10 17 0 16 -3 19 -8 10 -7 -9 -13 -8 -27 8 -25 27 -37 25 -29 -5 9 -36 -2
-31 -22 10 -9 19 -22 35 -29 35 -7 0 -20 11 -29 25 -9 13 -25 29 -35 34 -16 9
-18 8 -14 -8 3 -10 0 -22 -5 -25 -6 -3 -8 -16 -4 -28 3 -14 2 -19 -6 -14 -7 4
-12 17 -12 29 0 13 -13 33 -31 47 -28 24 -30 28 -21 60 l10 35 13 -32 c9 -23
20 -33 34 -32 11 0 14 3 8 6 -7 2 -13 13 -13 23 0 24 -27 45 -58 45 -19 0 -26
6 -27 22 -1 13 -5 26 -9 30 -4 5 -6 -1 -4 -12 2 -16 -3 -21 -28 -23 -21 -2
-32 1 -31 10 2 54 -4 67 -46 91 -23 14 -49 37 -57 51 -7 14 -17 26 -22 26 -5
0 -7 4 -3 9 3 5 1 12 -5 16 -5 3 -10 -2 -11 -12 0 -14 -3 -12 -11 7 -6 14 -13
36 -15 50 -2 14 -11 32 -19 41 -18 20 -18 39 0 39 19 0 46 -38 39 -56 -3 -9 1
-14 11 -14 13 0 15 4 8 16 -5 9 -8 24 -6 33 2 9 -7 24 -21 34 -23 16 -27 17
-41 3 -19 -20 -31 -21 -15 -2 8 10 9 16 1 21 -15 9 -12 25 6 25 8 0 12 5 9 11
-10 15 -13 59 -4 54 17 -11 17 12 0 27 -10 9 -21 22 -23 29 -3 8 -9 10 -14 6
-4 -4 -3 -17 4 -27 16 -26 15 -40 -2 -40 -38 0 -62 94 -31 120 8 7 12 16 10
21 -3 4 4 13 15 19 11 6 18 15 15 21 -4 5 -3 14 0 19 9 15 15 12 9 -5z m-2807
-17 c-3 -8 -6 -5 -6 6 -1 11 2 17 5 13 3 -3 4 -12 1 -19z m1168 2 c6 0 2 -5
-8 -11 -13 -8 -15 -14 -7 -29 8 -16 8 -18 -5 -14 -8 4 -15 11 -15 18 0 7 -3 6
-9 -2 -6 -11 -10 -10 -15 3 -8 22 10 44 32 40 9 -2 22 -4 27 -5z m-1200 -40
c-16 -30 -29 -38 -39 -21 -10 15 6 43 20 37 7 -3 16 -1 19 4 14 23 14 7 0 -20z
m6542 -17 c-3 -10 -5 -2 -5 17 0 19 2 27 5 18 2 -10 2 -26 0 -35z m-5307 12
c0 -8 -4 -15 -10 -15 -5 0 -10 7 -10 15 0 8 5 15 10 15 6 0 10 -7 10 -15z
m-79 -89 c5 -6 9 1 10 20 0 16 3 23 6 16 3 -7 2 -23 -1 -36 -5 -19 -11 -22
-32 -18 -24 4 -25 3 -14 -17 6 -13 9 -29 6 -36 -5 -15 -19 -10 -73 25 -25 16
-32 56 -9 47 8 -3 20 1 26 9 7 8 19 14 26 14 8 0 17 12 21 28 l7 27 9 -35 c5
-19 13 -39 18 -44z m2679 59 c0 -8 -4 -15 -10 -15 -5 0 -7 7 -4 15 4 8 8 15
10 15 2 0 4 -7 4 -15z m-1130 -30 c0 -14 -4 -25 -10 -25 -11 0 -14 33 -3 43
11 11 13 8 13 -18z m43 -30 c-3 -9 -8 -14 -10 -11 -3 3 -2 9 2 15 9 16 15 13
8 -4z m-1732 -29 c12 -44 -5 -76 -41 -76 -22 0 -33 6 -40 23 -7 17 -9 18 -9 5
-1 -24 -16 -23 -41 4 -25 27 -26 48 -1 48 11 0 22 4 25 8 3 5 19 9 37 10 17 0
34 3 37 7 11 11 26 -2 33 -29z m-271 4 c-19 -12 -30 -12 -30 -1 0 10 31 20 40
14 2 -2 -2 -8 -10 -13z m50 10 c0 -5 -7 -10 -15 -10 -8 0 -15 5 -15 10 0 6 7
10 15 10 8 0 15 -4 15 -10z m27 -23 c-7 -18 -57 -29 -57 -13 0 11 50 36 59 30
2 -2 1 -9 -2 -17z m373 13 c0 -5 -4 -10 -10 -10 -5 0 -10 5 -10 10 0 6 5 10
10 10 6 0 10 -4 10 -10z m1554 -26 c9 -24 7 -28 -9 -14 -17 14 -20 30 -6 30 5
0 12 -7 15 -16z m3396 -23 c0 -6 -4 -13 -10 -16 -5 -3 -10 1 -10 9 0 9 5 16
10 16 6 0 10 -4 10 -9z m-43 -43 c-3 -8 -6 -5 -6 6 -1 11 2 17 5 13 3 -3 4
-12 1 -19z m-2261 -68 c8 0 14 -9 14 -20 0 -23 -15 -27 -24 -5 -3 8 -12 15
-21 15 -8 0 -15 5 -15 11 0 6 7 8 16 5 9 -3 22 -6 30 -6z m174 -25 c19 -22 8
-25 -12 -3 -10 10 -14 18 -9 18 5 0 14 -7 21 -15z m2180 -56 c0 -5 -4 -9 -10
-9 -5 0 -10 7 -10 16 0 8 5 12 10 9 6 -3 10 -10 10 -16z m100 1 c0 -5 -4 -10
-10 -10 -5 0 -10 5 -10 10 0 6 5 10 10 10 6 0 10 -4 10 -10z m-2303 -22 c-3
-8 -6 -5 -6 6 -1 11 2 17 5 13 3 -3 4 -12 1 -19z m227 -4 c11 -28 6 -39 -9
-20 -8 11 -15 23 -15 28 0 14 18 9 24 -8z m-224 -39 c0 -18 5 -25 20 -25 11 0
21 -3 21 -7 6 -35 7 -60 3 -73 -4 -13 -6 -13 -14 0 -6 8 -10 25 -10 37 0 12
-7 23 -16 25 -18 3 -31 68 -14 68 6 0 10 -11 10 -25z m70 -15 c16 -22 18 -30
7 -30 -7 0 -19 11 -25 25 -21 46 -13 48 18 5z m-3875 0 c3 -5 -1 -10 -9 -10
-9 0 -16 5 -16 10 0 6 4 10 9 10 6 0 13 -4 16 -10z m3995 -31 c0 -6 -4 -7 -10
-4 -5 3 -10 11 -10 16 0 6 5 7 10 4 6 -3 10 -11 10 -16z m-3973 -21 c-3 -7 -5
-2 -5 12 0 14 2 19 5 13 2 -7 2 -19 0 -25z m3898 -18 c3 -5 1 -10 -4 -10 -6 0
-11 5 -11 10 0 6 2 10 4 10 3 0 8 -4 11 -10z m-95 -14 c0 -3 -4 -8 -10 -11 -5
-3 -10 -1 -10 4 0 6 5 11 10 11 6 0 10 -2 10 -4z m270 -37 c0 -6 -4 -7 -10 -4
-5 3 -10 11 -10 16 0 6 5 7 10 4 6 -3 10 -11 10 -16z m-504 -4 c4 -8 13 -15
22 -15 15 0 82 -65 82 -80 0 -5 -19 -7 -42 -6 -37 2 -43 6 -43 24 0 12 -10 29
-22 37 -13 9 -23 25 -23 36 0 22 18 26 26 4z m334 -52 c13 -11 13 -12 -2 -13
-10 0 -18 4 -18 9 0 12 -52 24 -59 14 -3 -5 -16 2 -27 14 l-22 21 35 -5 c19
-3 33 -2 32 3 -4 25 3 24 23 -2 13 -16 29 -34 38 -41z m15 57 c4 -6 -7 -10
-27 -9 -31 1 -32 1 -8 9 14 4 26 8 27 9 1 1 5 -3 8 -9z m169 -36 c11 -27 7
-37 -9 -24 -16 14 -20 40 -6 40 5 0 12 -7 15 -16z m-1174 -50 c0 -8 -4 -14
-10 -14 -5 0 -10 9 -10 21 0 11 5 17 10 14 6 -3 10 -13 10 -21z m1050 -54 c7
0 10 -7 6 -16 -3 -9 -6 -20 -6 -25 0 -5 -4 -9 -8 -9 -11 0 -32 46 -32 68 1 16
2 16 14 0 7 -10 19 -18 26 -18z m-309 -13 c4 -5 25 -13 46 -17 37 -6 40 -5 35
13 -4 16 -2 18 14 9 23 -12 32 -67 10 -59 -8 3 -31 9 -50 13 -31 5 -36 3 -37
-12 -1 -18 -2 -18 -6 -1 -4 14 -8 16 -19 6 -11 -9 -15 -7 -20 7 -3 11 -10 29
-15 42 -5 13 -9 25 -9 28 0 7 44 -17 51 -29z m409 13 c0 -5 -8 -10 -17 -10
-15 0 -16 2 -3 10 19 12 20 12 20 0z m-462 -53 c5 -24 -15 -21 -21 4 -3 13 -1
19 6 16 7 -2 13 -11 15 -20z m286 14 c4 -5 -3 -7 -14 -4 -23 6 -26 13 -6 13 8
0 17 -4 20 -9z m80 -32 c17 0 96 -44 96 -54 0 -8 -54 16 -62 28 -4 6 -22 10
-41 9 -22 -2 -39 4 -48 15 -13 15 -12 16 11 9 14 -4 33 -8 44 -7z m-316 -51
c10 -10 15 -10 22 2 8 12 10 9 10 -12 0 -15 7 -33 15 -41 8 -8 12 -17 9 -20
-4 -3 -3 -11 2 -18 5 -9 10 -7 15 7 6 16 8 15 8 -8 1 -15 -3 -30 -9 -33 -5 -3
-10 -2 -10 3 0 5 -11 15 -25 22 -14 7 -25 18 -25 24 0 6 -9 22 -20 36 -30 38
-23 69 8 38z m-221 -98 c-16 -20 -18 -21 -12 -5 4 11 10 40 13 65 l6 45 7 -40
c5 -32 3 -45 -14 -65z m75 66 c6 4 8 3 5 -3 -4 -6 -2 -24 3 -42 5 -17 5 -31 1
-31 -13 0 -31 50 -30 83 1 24 3 26 6 9 3 -13 9 -19 15 -16z m-224 -8 c-2 -26
2 -35 20 -44 14 -7 19 -14 13 -18 -14 -9 -71 34 -70 53 0 12 2 11 8 -3 7 -18
8 -18 14 -3 3 9 4 24 1 32 -4 8 -1 15 6 15 7 0 10 -12 8 -32z m294 -48 l-8
-65 -11 45 c-6 25 -15 56 -19 70 -7 22 -5 23 8 12 13 -10 17 -10 23 5 12 30
15 2 7 -67z m455 64 c-3 -3 -12 -4 -19 -1 -8 3 -5 6 6 6 11 1 17 -2 13 -5z
m-152 -14 c3 -6 -1 -7 -9 -4 -18 7 -21 14 -7 14 6 0 13 -4 16 -10z m-4070 -48
c17 -2 16 -4 -7 -16 -15 -8 -38 -16 -50 -18 -29 -4 -35 -34 -12 -59 15 -17 15
-19 2 -14 -23 9 -61 -13 -54 -31 3 -8 1 -14 -4 -14 -6 0 -10 -6 -10 -13 0 -8
-15 -14 -37 -15 -38 -3 -63 -21 -76 -56 -5 -12 -14 -17 -27 -13 -15 4 -20 0
-20 -16 0 -13 -10 -26 -23 -33 -28 -12 -47 -8 -47 12 0 9 -8 12 -22 10 -13 -3
-29 -5 -36 -5 -7 -1 -10 -6 -6 -13 5 -8 0 -9 -14 -6 -26 7 -28 0 -5 -17 14
-11 15 -15 4 -28 -13 -16 -45 -12 -35 4 3 5 10 7 15 4 5 -4 9 -1 9 4 0 6 -9
11 -20 11 -24 0 -25 7 -4 50 14 27 14 34 3 41 -22 14 -29 11 -39 -16 -5 -14
-14 -25 -20 -25 -7 0 -4 13 7 30 9 17 23 30 30 30 7 0 13 8 13 18 0 27 55 76
76 68 14 -5 11 -11 -19 -34 -35 -26 -52 -50 -43 -59 7 -7 76 50 76 63 0 20 48
60 110 93 33 18 60 29 60 25 0 -4 9 1 19 10 33 30 88 37 206 28z m3675 -12 c9
-16 8 -18 -5 -14 -8 4 -15 12 -15 20 0 20 7 17 20 -6z m3150 -25 c0 -5 -5 -3
-10 5 -5 8 -10 20 -10 25 0 6 5 3 10 -5 5 -8 10 -19 10 -25z m-2703 9 c-3 -3
-12 -4 -19 -1 -8 3 -5 6 6 6 11 1 17 -2 13 -5z m-612 -24 c17 -7 15 -9 -12 -9
-17 -1 -35 4 -38 9 -7 12 22 12 50 0z m-3871 -24 c-3 -8 -13 -17 -21 -20 -12
-5 -13 -4 -5 7 7 8 9 17 5 20 -3 4 1 7 10 7 10 0 14 -5 11 -14z m-644 -26 c0
-5 -5 -10 -11 -10 -5 0 -7 5 -4 10 3 6 8 10 11 10 2 0 4 -4 4 -10z m27 -72
c-3 -7 -5 -2 -5 12 0 14 2 19 5 13 2 -7 2 -19 0 -25z m243 -98 c0 -5 -5 -10
-11 -10 -5 0 -7 5 -4 10 3 6 8 10 11 10 2 0 4 -4 4 -10z m510 -14 c0 -3 -4 -8
-10 -11 -5 -3 -10 -1 -10 4 0 6 5 11 10 11 6 0 10 -2 10 -4z m-510 -10 c0 -3
-4 -8 -10 -11 -5 -3 -10 -1 -10 4 0 6 5 11 10 11 6 0 10 -2 10 -4z m-270 -21
c0 -8 -4 -15 -10 -15 -5 0 -7 7 -4 15 4 8 8 15 10 15 2 0 4 -7 4 -15z m-48
-67 c-7 -7 -12 -8 -12 -2 0 14 12 26 19 19 2 -3 -1 -11 -7 -17z m668 18 c0 -3
-4 -8 -10 -11 -5 -3 -10 -1 -10 4 0 6 5 11 10 11 6 0 10 -2 10 -4z m-60 -160
c0 -3 -4 -8 -10 -11 -5 -3 -10 -1 -10 4 0 6 5 11 10 11 6 0 10 -2 10 -4z m280
-140 c0 -3 -4 -8 -10 -11 -5 -3 -10 -1 -10 4 0 6 5 11 10 11 6 0 10 -2 10 -4z
m6844 -47 c-6 -11 -24 -2 -24 11 0 5 7 7 15 4 8 -4 12 -10 9 -15z m-6864 -11
c0 -19 -18 -44 -25 -36 -4 3 0 15 7 27 15 24 18 26 18 9z m210 -83 c0 -8 -4
-15 -10 -15 -5 0 -10 7 -10 15 0 8 5 15 10 15 6 0 10 -7 10 -15z m1633 -225
c10 0 16 -4 12 -10 -3 -5 -11 -7 -18 -5 -7 3 -17 -7 -24 -21 -10 -22 -9 -29 5
-43 9 -10 25 -21 35 -24 9 -4 17 -13 17 -22 0 -8 6 -24 13 -35 10 -17 9 -22
-1 -29 -8 -5 -12 -19 -10 -32 2 -16 -2 -24 -12 -24 -10 0 -14 8 -12 24 2 13
-5 32 -17 45 -11 11 -20 24 -21 28 -4 38 -14 67 -21 62 -10 -6 -15 5 -24 58
-5 33 -3 37 17 40 13 2 27 0 33 -4 5 -4 17 -8 28 -8z m117 -6 c0 -8 -4 -12
-10 -9 -5 3 -10 10 -10 16 0 5 5 9 10 9 6 0 10 -7 10 -16z m77 -58 l1 -41 -14
34 c-18 43 -19 77 -1 60 6 -6 13 -30 14 -53z m-937 27 c0 -16 -9 -39 -20 -53
l-20 -25 0 34 c0 27 2 31 14 22 11 -9 14 -9 13 1 -1 25 3 48 8 48 3 0 5 -12 5
-27z m420 -40 c0 -18 5 -33 10 -33 6 0 10 5 10 10 0 6 4 10 9 10 17 0 -1 -38
-21 -43 -23 -7 -33 13 -24 51 l6 27 -19 -22 -19 -22 -12 30 c-16 38 -1 52 36
35 18 -8 24 -19 24 -43z m-294 -29 c-5 -14 -9 -15 -19 -5 -9 9 -9 14 3 21 18
11 24 6 16 -16z m64 -34 c-4 -25 -8 -37 -9 -28 0 9 -6 20 -13 24 -7 4 -8 3 -4
-4 4 -7 2 -12 -3 -12 -19 0 -12 -28 9 -33 13 -3 18 -10 14 -21 -3 -9 -2 -16 4
-16 6 0 13 6 15 13 3 7 6 5 6 -5 1 -10 -9 -29 -21 -43 -20 -23 -22 -23 -34 -7
-12 16 -13 15 -14 -5 0 -13 6 -23 14 -23 12 0 12 -7 0 -45 -9 -33 -10 -45 -1
-45 6 0 4 -7 -6 -17 -20 -20 -33 -11 -22 14 11 23 12 72 2 66 -4 -2 -7 23 -6
56 1 49 4 58 17 54 15 -6 15 -5 -4 65 -5 18 -2 22 15 22 14 0 23 8 27 26 11
42 22 13 14 -36z m724 24 c6 -10 16 -22 21 -26 6 -4 -2 -8 -17 -8 -21 0 -28 5
-28 20 0 13 -5 18 -15 14 -8 -4 -15 -2 -15 4 0 11 20 22 34 18 5 -1 14 -11 20
-22z m-79 -84 c-4 -11 -10 -20 -15 -20 -15 0 -20 31 -9 52 10 19 12 20 21 4 5
-9 6 -25 3 -36z m-733 -30 c1 -53 -11 -64 -41 -39 -18 15 -21 23 -13 31 8 8
15 8 27 -2 14 -12 16 -12 15 1 -1 7 -2 25 -1 38 2 40 12 17 13 -29z m1165 18
c-3 -7 -5 -2 -5 12 0 14 2 19 5 13 2 -7 2 -19 0 -25z m-1235 -20 c-9 -9 -12
-7 -12 12 0 19 3 21 12 12 9 -9 9 -15 0 -24z m21 -99 c-5 -18 -23 -27 -23 -11
1 25 14 52 20 42 4 -7 5 -21 3 -31z m-133 -14 c0 -8 -4 -15 -10 -15 -5 0 -10
7 -10 15 0 8 5 15 10 15 6 0 10 -7 10 -15z m135 -45 c7 0 16 -7 19 -16 4 -9 9
-14 13 -11 10 11 33 -14 33 -36 0 -15 -3 -18 -11 -10 -6 6 -19 8 -30 6 -14 -4
-18 -11 -14 -27 5 -18 5 -19 -5 -4 -8 13 -8 24 0 39 7 11 9 23 6 27 -3 3 -6 0
-6 -6 0 -7 -4 -12 -10 -12 -5 0 -10 7 -10 15 0 18 -5 18 -31 5 -10 -6 -19 -18
-19 -28 -1 -16 -1 -16 -11 1 -16 27 -2 57 27 57 13 0 24 6 25 13 0 10 2 10 6
0 2 -7 11 -13 18 -13z m-179 -54 c2 -25 -1 -48 -6 -51 -6 -4 -10 17 -10 51 0
66 11 66 16 0z m1964 44 c0 -5 -4 -10 -10 -10 -5 0 -10 5 -10 10 0 6 5 10 10
10 6 0 10 -4 10 -10z m-55 -19 c-3 -6 -11 -11 -17 -11 -6 0 -6 6 2 15 14 17
26 13 15 -4z m3235 -1 c0 -5 -5 -10 -11 -10 -5 0 -7 5 -4 10 3 6 8 10 11 10 2
0 4 -4 4 -10z m-3270 -20 c0 -5 -2 -10 -4 -10 -3 0 -8 5 -11 10 -3 6 -1 10 4
10 6 0 11 -4 11 -10z m127 -24 c-3 -7 -1 -18 5 -24 13 -13 2 -32 -18 -32 -14
0 -19 26 -8 54 3 9 11 16 16 16 6 0 8 -6 5 -14z m69 -22 c-6 -16 10 -29 19
-14 10 16 22 12 28 -9 3 -14 11 -18 24 -15 17 5 19 1 15 -25 -5 -36 -22 -52
-22 -21 0 18 -4 20 -22 14 -20 -6 -21 -5 -10 9 8 9 11 21 7 27 -11 17 -32 -19
-27 -45 6 -32 -22 -38 -48 -10 l-21 23 23 45 c13 25 27 43 31 40 5 -3 6 -11 3
-19z m-159 -6 c-3 -8 -6 -5 -6 6 -1 11 2 17 5 13 3 -3 4 -12 1 -19z m-2021
-55 c-10 -26 -18 -8 -9 23 5 21 8 24 11 11 2 -10 1 -25 -2 -34z m137 7 c-3
-11 -9 -18 -13 -15 -5 3 -10 -4 -12 -15 -4 -26 -22 -31 -26 -8 -4 19 13 41 38
51 8 3 16 6 17 6 0 1 -1 -8 -4 -19z m507 -39 c0 -10 -6 -21 -13 -24 -10 -4
-13 2 -9 19 5 28 22 32 22 5z"/>
<path d="M4471 3584 c0 -11 3 -14 6 -6 3 7 2 16 -1 19 -3 4 -6 -2 -5 -13z"/>
<path d="M4267 3562 c-5 -28 1 -52 13 -52 5 0 7 11 5 25 -1 15 4 29 12 34 13
7 12 9 -5 13 -16 4 -21 0 -25 -20z"/>
<path d="M4390 3569 c0 -5 5 -7 10 -4 6 3 10 8 10 11 0 2 -4 4 -10 4 -5 0 -10
-5 -10 -11z"/>
<path d="M4200 3505 c0 -8 5 -15 10 -15 6 0 10 7 10 15 0 8 -4 15 -10 15 -5 0
-10 -7 -10 -15z"/>
<path d="M4365 3460 c3 -5 8 -10 11 -10 2 0 4 5 4 10 0 6 -5 10 -11 10 -5 0
-7 -4 -4 -10z"/>
<path d="M4036 3099 c-11 -11 -17 -21 -14 -24 7 -8 41 21 37 32 -2 6 -13 2
-23 -8z"/>
<path d="M4178 3054 c-16 -8 -28 -19 -28 -24 0 -12 63 15 68 29 5 15 -7 13
-40 -5z"/>
<path d="M4623 2995 c-3 -9 -3 -18 0 -21 9 -9 27 6 27 22 0 19 -19 18 -27 -1z"/>
<path d="M4481 2784 c0 -11 3 -14 6 -6 3 7 2 16 -1 19 -3 4 -6 -2 -5 -13z"/>
<path d="M4270 2730 c0 -16 4 -30 10 -30 5 0 7 6 4 14 -3 8 0 17 5 21 12 7 5
25 -10 25 -5 0 -9 -13 -9 -30z"/>
<path d="M3983 2483 c-7 -2 -13 -8 -13 -13 0 -12 33 -5 38 8 4 12 -4 14 -25 5z"/>
<path d="M4039 2477 c6 -8 8 -16 5 -20 -3 -3 4 -10 15 -17 17 -9 21 -8 21 5 0
8 -5 15 -11 15 -5 0 -8 4 -5 9 3 5 -1 12 -10 15 -24 9 -28 7 -15 -7z"/>
<path d="M4150 2410 c6 -11 8 -25 5 -30 -4 -6 3 -7 17 -1 13 4 24 17 26 27 3
18 2 18 -13 -1 -15 -20 -16 -19 -21 3 -4 12 -10 22 -16 22 -5 0 -4 -9 2 -20z"/>
<path d="M3980 2410 c0 -5 5 -10 11 -10 5 0 7 5 4 10 -3 6 -8 10 -11 10 -2 0
-4 -4 -4 -10z"/>
<path d="M4030 2384 c15 -17 30 -18 30 -1 0 7 -9 13 -21 14 -17 2 -18 -1 -9
-13z"/>
<path d="M4511 2323 c-14 -30 -13 -31 29 -43 27 -8 31 -7 26 7 -4 9 -1 20 6
25 10 6 9 8 -2 8 -9 0 -21 -4 -28 -10 -9 -7 -9 -7 -2 2 14 16 13 25 -4 31 -8
3 -18 -5 -25 -20z"/>
<path d="M4280 2331 c0 -11 31 -24 38 -16 3 3 -1 5 -9 5 -11 0 -11 2 1 10 12
8 11 10 -7 10 -13 0 -23 -4 -23 -9z"/>
<path d="M4325 2299 c-10 -15 3 -25 16 -12 7 7 7 13 1 17 -6 3 -14 1 -17 -5z"/>
<path d="M4648 2293 c6 -2 12 -11 12 -19 0 -17 10 -17 33 0 26 20 21 26 -20
25 -21 0 -32 -3 -25 -6z"/>
<path d="M4815 2231 c-3 -5 -1 -12 4 -15 5 -3 11 1 15 9 6 16 -9 21 -19 6z"/>
<path d="M4765 2220 c-3 -5 -13 -6 -23 -3 -16 6 -16 6 0 -10 20 -21 28 -21 28
-3 0 8 6 17 13 19 9 4 9 6 0 6 -6 1 -14 -3 -18 -9z"/>
<path d="M4320 2190 c0 -5 5 -10 10 -10 6 0 10 5 10 10 0 6 -4 10 -10 10 -5 0
-10 -4 -10 -10z"/>
<path d="M4830 2175 c0 -8 4 -15 10 -15 5 0 7 7 4 15 -4 8 -8 15 -10 15 -2 0
-4 -7 -4 -15z"/>
<path d="M4740 2134 c0 -9 5 -14 12 -12 18 6 21 28 4 28 -9 0 -16 -7 -16 -16z"/>
<path d="M4246 2112 c-2 -4 -1 -14 5 -22 7 -12 9 -10 9 8 0 23 -5 28 -14 14z"/>
<path d="M4351 2104 c0 -11 3 -14 6 -6 3 7 2 16 -1 19 -3 4 -6 -2 -5 -13z"/>
<path d="M4894 2104 c3 -9 6 -19 6 -22 0 -9 20 21 20 31 0 4 -7 7 -16 7 -11 0
-14 -5 -10 -16z"/>
<path d="M4850 2100 c0 -5 5 -10 11 -10 5 0 7 5 4 10 -3 6 -8 10 -11 10 -2 0
-4 -4 -4 -10z"/>
<path d="M4670 2090 c0 -5 5 -10 10 -10 6 0 10 5 10 10 0 6 -4 10 -10 10 -5 0
-10 -4 -10 -10z"/>
<path d="M4292 2068 c2 -6 10 -14 16 -16 7 -2 10 2 6 12 -7 18 -28 22 -22 4z"/>
<path d="M4765 2071 c-3 -5 -1 -12 5 -16 5 -3 10 1 10 9 0 18 -6 21 -15 7z"/>
<path d="M4163 2035 c7 -23 13 -31 18 -23 8 12 -4 42 -20 52 -5 4 -4 -10 2
-29z"/>
<path d="M4880 2060 c0 -5 5 -10 10 -10 6 0 10 5 10 10 0 6 -4 10 -10 10 -5 0
-10 -4 -10 -10z"/>
<path d="M4935 2060 c-3 -5 1 -10 10 -10 9 0 13 5 10 10 -3 6 -8 10 -10 10 -2
0 -7 -4 -10 -10z"/>
<path d="M4406 2053 c5 -5 12 -12 16 -18 4 -6 8 -2 8 8 0 9 -7 17 -17 17 -9 0
-12 -3 -7 -7z"/>
<path d="M4330 2020 c0 -5 5 -10 10 -10 6 0 10 5 10 10 0 6 -4 10 -10 10 -5 0
-10 -4 -10 -10z"/>
<path d="M4730 2019 c0 -9 -7 -19 -15 -23 -19 -7 -19 -22 1 -30 10 -4 13 -2 8
6 -4 6 0 16 9 23 11 7 13 16 6 26 -7 12 -9 11 -9 -2z"/>
<path d="M5010 2011 c0 -6 4 -13 10 -16 6 -3 7 1 4 9 -7 18 -14 21 -14 7z"/>
<path d="M4386 1984 c-4 -9 -4 -19 -1 -22 2 -3 7 3 11 12 4 9 4 19 1 22 -2 3
-7 -3 -11 -12z"/>
<path d="M4411 1974 c-1 -17 6 -37 14 -44 8 -7 15 -20 15 -28 0 -12 3 -13 12
-4 18 18 28 15 29 -10 0 -22 1 -22 10 2 6 15 6 26 1 28 -16 5 -69 56 -75 72
-3 8 -6 1 -6 -16z"/>
<path d="M4587 1960 c5 -17 8 -18 21 -8 12 10 16 10 19 1 3 -7 12 -13 21 -12
11 0 12 2 4 6 -6 2 -9 10 -6 15 4 6 2 8 -4 4 -6 -3 -13 -2 -17 4 -3 5 -14 10
-25 10 -13 0 -17 -5 -13 -20z"/>
<path d="M4765 1971 c-3 -6 -11 -9 -16 -6 -5 4 -9 1 -9 -4 0 -13 10 -14 30 -1
8 5 12 12 8 15 -3 4 -9 1 -13 -4z"/>
<path d="M4670 1926 c0 -2 9 -6 20 -9 11 -3 20 -1 20 4 0 5 -9 9 -20 9 -11 0
-20 -2 -20 -4z"/>
<path d="M4777 1903 c-10 -9 -9 -23 2 -23 5 0 11 7 15 15 5 15 -5 20 -17 8z"/>
<path d="M4560 1890 c0 -5 6 -10 14 -10 8 0 16 -6 19 -12 2 -7 8 -9 13 -5 5 5
1 15 -10 23 -23 16 -36 18 -36 4z"/>
<path d="M4510 1840 c0 -5 5 -10 10 -10 6 0 10 5 10 10 0 6 -4 10 -10 10 -5 0
-10 -4 -10 -10z"/>
<path d="M5283 5919 c14 -8 22 -8 30 0 8 8 3 11 -18 11 -26 -1 -28 -2 -12 -11z"/>
<path d="M4321 5743 c-13 -47 -14 -80 -2 -67 10 10 25 104 17 104 -3 0 -10
-17 -15 -37z"/>
<path d="M5170 5750 c0 -5 4 -10 9 -10 6 0 13 5 16 10 3 6 -1 10 -9 10 -9 0
-16 -4 -16 -10z"/>
<path d="M4944 5680 c-26 -10 -54 -48 -54 -72 0 -29 17 -21 35 18 16 33 20 36
51 31 19 -3 34 -2 34 4 0 5 -9 9 -19 9 -11 0 -21 4 -23 9 -1 5 -13 5 -24 1z"/>
<path d="M5050 5635 c-7 -9 -11 -18 -8 -20 3 -3 11 1 18 10 7 9 11 18 8 20 -3
3 -11 -1 -18 -10z"/>
<path d="M4850 5590 c0 -5 5 -10 10 -10 6 0 10 5 10 10 0 6 -4 10 -10 10 -5 0
-10 -4 -10 -10z"/>
<path d="M3963 5551 c3 -16 2 -68 -3 -116 -9 -91 -1 -141 12 -70 12 66 10 215
-3 215 -7 0 -9 -11 -6 -29z"/>
<path d="M4070 5542 c0 -23 4 -42 9 -42 6 0 7 17 4 38 -8 51 -13 53 -13 4z"/>
<path d="M3895 5490 c-4 -17 -5 -34 -2 -36 2 -3 7 10 11 27 8 42 0 50 -9 9z"/>
<path d="M4741 5464 c0 -11 3 -14 6 -6 3 7 2 16 -1 19 -3 4 -6 -2 -5 -13z"/>
<path d="M5026 5471 c-4 -5 1 -8 9 -7 21 3 31 16 12 16 -9 0 -18 -4 -21 -9z"/>
<path d="M4430 5431 c0 -5 5 -13 10 -16 6 -3 10 -2 10 4 0 5 -4 13 -10 16 -5
3 -10 2 -10 -4z"/>
<path d="M4687 5425 c-4 -8 -2 -17 3 -20 6 -4 10 3 10 14 0 25 -6 27 -13 6z"/>
<path d="M4847 5433 c-12 -12 -7 -22 8 -17 8 4 15 10 15 15 0 11 -14 12 -23 2z"/>
<path d="M4300 5419 c0 -5 5 -7 10 -4 6 3 10 8 10 11 0 2 -4 4 -10 4 -5 0 -10
-5 -10 -11z"/>
<path d="M4727 5415 c-4 -8 -2 -17 3 -20 6 -4 10 3 10 14 0 25 -6 27 -13 6z"/>
<path d="M4390 5410 c-9 -6 -10 -10 -3 -10 6 0 15 5 18 10 8 12 4 12 -15 0z"/>
<path d="M3881 5374 c0 -11 3 -14 6 -6 3 7 2 16 -1 19 -3 4 -6 -2 -5 -13z"/>
<path d="M4077 5376 c-4 -10 -7 -25 -6 -34 0 -11 4 -9 10 7 5 13 8 29 6 35 -2
5 -6 2 -10 -8z"/>
<path d="M4348 5363 c7 -3 16 -2 19 1 4 3 -2 6 -13 5 -11 0 -14 -3 -6 -6z"/>
<path d="M4275 5301 c-3 -5 -1 -12 5 -16 5 -3 10 1 10 9 0 18 -6 21 -15 7z"/>
<path d="M4946 5275 c-8 -23 -8 -25 8 -25 8 0 17 -6 19 -12 3 -8 6 -6 6 5 1
27 1 27 -5 26 -4 0 -10 5 -14 11 -5 8 -9 7 -14 -5z"/>
<path d="M4827 5253 c-4 -3 -7 -13 -7 -22 1 -13 3 -13 11 2 11 19 8 33 -4 20z"/>
<path d="M4957 5205 c-10 -7 -14 -16 -9 -19 5 -3 15 1 22 9 17 21 9 27 -13 10z"/>
<path d="M5018 5213 c7 -3 16 -2 19 1 4 3 -2 6 -13 5 -11 0 -14 -3 -6 -6z"/>
<path d="M4881 5198 c-1 -10 1 -18 3 -18 2 0 11 -3 20 -6 9 -3 16 -1 16 5 0 6
-6 11 -14 11 -8 0 -17 6 -19 13 -3 7 -6 5 -6 -5z"/>
<path d="M5030 5191 c0 -5 7 -11 15 -15 9 -3 15 0 15 9 0 8 -7 15 -15 15 -8 0
-15 -4 -15 -9z"/>
<path d="M4855 5151 c-3 -5 -1 -12 5 -16 5 -3 10 1 10 9 0 18 -6 21 -15 7z"/>
<path d="M4223 4960 c0 -25 2 -35 4 -22 2 12 2 32 0 45 -2 12 -4 2 -4 -23z"/>
<path d="M4051 4934 c0 -11 3 -14 6 -6 3 7 2 16 -1 19 -3 4 -6 -2 -5 -13z"/>
<path d="M3625 4870 c3 -5 8 -10 11 -10 2 0 4 5 4 10 0 6 -5 10 -11 10 -5 0
-7 -4 -4 -10z"/>
<path d="M4290 4870 c0 -5 5 -10 10 -10 6 0 10 5 10 10 0 6 -4 10 -10 10 -5 0
-10 -4 -10 -10z"/>
<path d="M4282 4829 c2 -30 25 -33 40 -6 7 13 5 15 -8 10 -9 -3 -20 0 -25 8
-6 10 -8 6 -7 -12z"/>
<path d="M4046 4683 c-11 -11 -6 -23 9 -23 8 0 15 4 15 9 0 13 -16 22 -24 14z"/>
<path d="M3606 4375 c-3 -9 -6 -33 -6 -52 0 -31 2 -34 15 -23 12 10 13 16 4
26 -9 11 -8 18 1 29 9 11 10 19 3 26 -7 7 -12 5 -17 -6z"/>
<path d="M1756 3525 c-3 -8 -1 -15 4 -15 6 0 10 7 10 15 0 8 -2 15 -4 15 -2 0
-6 -7 -10 -15z"/>
<path d="M1731 3504 c0 -11 3 -14 6 -6 3 7 2 16 -1 19 -3 4 -6 -2 -5 -13z"/>
<path d="M2500 360 c0 -5 5 -10 11 -10 5 0 7 5 4 10 -3 6 -8 10 -11 10 -2 0
-4 -4 -4 -10z"/>
<path d="M2880 361 c0 -6 5 -13 10 -16 6 -3 10 1 10 9 0 9 -4 16 -10 16 -5 0
-10 -4 -10 -9z"/>
<path d="M3150 348 c0 -12 3 -18 7 -15 3 4 11 -3 17 -14 14 -28 32 -21 28 11
-6 41 -52 58 -52 18z"/>
<path d="M2455 340 c-8 -13 4 -32 16 -25 12 8 12 35 0 35 -6 0 -13 -4 -16 -10z"/>
<path d="M3091 295 c23 -39 44 -47 34 -14 -5 15 -4 19 4 15 6 -4 11 0 11 9 0
12 -6 15 -19 10 -11 -3 -22 -1 -26 5 -3 5 -10 10 -15 10 -5 0 0 -16 11 -35z"/>
<path d="M2746 295 c-19 -28 -21 -44 -4 -27 21 21 47 -52 32 -92 -12 -32 -30
-15 -49 46 -25 79 -47 90 -38 20 3 -32 1 -52 -6 -56 -20 -12 -12 -28 13 -24
13 1 29 -2 37 -9 8 -6 27 -9 42 -6 22 4 26 9 22 27 -6 18 -4 18 12 -4 17 -25
35 -32 47 -19 4 3 0 12 -9 19 -17 14 -20 46 -5 55 12 7 14 36 2 32 -5 -1 -23
13 -41 31 -18 17 -34 32 -36 32 -1 0 -10 -11 -19 -25z m41 -37 c-3 -8 -6 -5
-6 6 -1 11 2 17 5 13 3 -3 4 -12 1 -19z"/>
<path d="M2601 300 c0 -8 4 -22 9 -30 12 -18 12 -2 0 25 -6 13 -9 15 -9 5z"/>
<path d="M3500 250 c0 -13 33 -21 44 -10 6 6 6 10 1 11 -6 0 -18 2 -27 4 -10
2 -18 0 -18 -5z"/>
<path d="M2648 230 c-7 -24 -3 -38 8 -28 3 4 4 17 2 30 l-3 23 -7 -25z"/>
<path d="M2750 229 c0 -5 5 -7 10 -4 6 3 10 8 10 11 0 2 -4 4 -10 4 -5 0 -10
-5 -10 -11z"/>
<path d="M3136 218 c8 -28 12 -33 20 -25 9 8 -6 47 -17 47 -6 0 -7 -10 -3 -22z"/>
<path d="M2251 214 c0 -11 3 -14 6 -6 3 7 2 16 -1 19 -3 4 -6 -2 -5 -13z"/>
<path d="M2873 165 c8 -56 13 -63 29 -47 15 15 -1 84 -21 90 -11 4 -13 -5 -8
-43z"/>
<path d="M2940 200 c0 -5 5 -10 11 -10 5 0 7 5 4 10 -3 6 -8 10 -11 10 -2 0
-4 -4 -4 -10z"/>
<path d="M3373 184 c-10 -10 -10 -14 0 -17 8 -4 8 -6 -2 -6 -16 -1 31 -41 48
-41 20 0 11 47 -12 63 -18 12 -24 12 -34 1z"/>
<path d="M2580 166 c0 -8 5 -18 10 -21 6 -3 10 3 10 14 0 12 -4 21 -10 21 -5
0 -10 -6 -10 -14z"/>
<path d="M3318 173 c-10 -3 -18 -9 -18 -14 0 -6 5 -7 10 -4 6 3 10 1 10 -4 0
-16 17 -13 23 4 7 17 -1 23 -25 18z"/>
<path d="M3627 174 c-13 -13 -7 -35 14 -57 l21 -22 -7 35 c-8 39 -18 54 -28
44z"/>
<path d="M2272 151 c4 -13 18 -16 19 -4 0 4 -5 9 -11 12 -7 2 -11 -2 -8 -8z"/>
<path d="M2617 113 c-7 -11 10 -40 18 -31 4 4 3 14 -3 24 -5 9 -12 12 -15 7z"/>
<path d="M2233 99 c-10 -10 -9 -17 8 -35 l21 -22 -21 -7 c-24 -7 -28 -35 -5
-35 8 0 12 5 9 10 -3 6 -2 10 4 10 5 0 13 -4 16 -10 10 -17 25 -11 25 10 0 11
-4 20 -10 20 -5 0 -10 9 -10 20 0 11 -4 20 -9 20 -5 0 -11 7 -13 16 -2 12 -5
13 -15 3z"/>
<path d="M2300 81 c0 -10 7 -21 15 -25 16 -6 19 3 9 28 -8 22 -24 20 -24 -3z"/>
<path d="M2690 90 c0 -5 5 -10 10 -10 6 0 10 5 10 10 0 6 -4 10 -10 10 -5 0
-10 -4 -10 -10z"/>
<path d="M3752 55 c0 -16 2 -22 5 -12 2 9 2 23 0 30 -3 6 -5 -1 -5 -18z"/>
<path d="M2064 59 c-3 -6 -1 -16 5 -22 8 -8 11 -5 11 11 0 24 -5 28 -16 11z"/>
<path d="M3100 32 c0 -11 7 -22 15 -26 9 -3 15 0 15 8 0 7 -7 19 -15 26 -12
10 -15 9 -15 -8z"/>
<path d="M2714 15 c8 -8 18 -15 22 -15 3 0 1 7 -6 15 -7 8 -17 15 -22 15 -5 0
-3 -7 6 -15z"/>
<path d="M2870 10 c0 -6 7 -10 15 -10 8 0 15 2 15 4 0 2 -7 6 -15 10 -8 3 -15
1 -15 -4z"/>
</g>
</svg>
